<?xml version="1.0" encoding="utf-8"?>
<svg version="1.1" xmlns:xlink="http://www.w3.org/1999/xlink" width="50px" height="50px" xmlns="http://www.w3.org/2000/svg">
  <defs>
    <pattern id="BGPattern" patternUnits="userSpaceOnUse" alignment="0 0" imageRepeat="None" />
    <mask fill="white" id="Clip245">
      <path d="M 37.19075520833333 21.142578125  C 37.396918402777786 21.348741319444443  37.5 21.592881944444443  37.5 21.875  L 37.5 28.125  C 37.5 28.407118055555557  37.396918402777786 28.651258680555557  37.19075520833333 28.857421875  C 36.98459201388889 29.063585069444443  36.74045138888889 29.166666666666664  36.45833333333333 29  L 25 29  L 25 35.416666666666664  C 25 35.72048611111111  24.90234375 35.970052083333336  24.70703125 36.165364583333336  C 24.51171875 36.360677083333336  24.26215277777778 36.458333333333336  23.958333333333336 36.458333333333336  C 23.697916666666664 36.458333333333336  23.4375 36.349826388888886  23.177083333333336 36.1328125  L 12.79296875 25.748697916666664  C 12.59765625 25.553385416666664  12.5 25.303819444444443  12.5 25  C 12.5 24.696180555555554  12.59765625 24.446614583333332  12.79296875 24.251302083333332  L 23.209635416666664 13.834635416666668  C 23.404947916666664 13.639322916666668  23.654513888888893 13.541666666666668  23.958333333333336 13.541666666666668  C 24.240451388888893 13.541666666666668  24.484592013888893 13.644748263888884  24.690755208333336 13.850911458333332  C 24.896918402777775 14.057074652777773  25 14.301215277777773  25 14.583333333333332  L 25 21  L 36.45833333333333 21  C 36.74045138888889 20.833333333333332  36.98459201388889 20.936414930555557  37.19075520833333 21.142578125  Z M 40.33203125 33.88671875  C 41.91623263888889 31.174045138888886  42.70833333333333 28.211805555555557  42.70833333333333 25  C 42.70833333333333 21.788194444444443  41.91623263888889 18.82595486111111  40.33203125 16.11328125  C 38.747829861111114 13.400607638888884  36.599392361111114 11.252170138888884  33.88671875 9.66796875  C 31.17404513888889 8.08376736111111  28.211805555555557 7.291666666666669  25 7.291666666666669  C 21.788194444444446 7.291666666666669  18.825954861111114 8.08376736111111  16.11328125 9.66796875  C 13.40060763888889 11.252170138888884  11.25217013888889 13.400607638888884  9.66796875 16.11328125  C 8.083767361111112 18.82595486111111  7.291666666666667 21.788194444444443  7.291666666666667 25  C 7.291666666666667 28.211805555555557  8.083767361111112 31.174045138888886  9.66796875 33.88671875  C 11.25217013888889 36.59939236111111  13.40060763888889 38.74782986111111  16.11328125 40.33203125  C 18.825954861111114 41.91623263888889  21.788194444444446 42.70833333333333  25 42.70833333333333  C 28.211805555555557 42.70833333333333  31.17404513888889 41.91623263888889  33.88671875 40.33203125  C 36.599392361111114 38.74782986111111  38.747829861111114 36.59939236111111  40.33203125 33.88671875  Z M 46.64713541666667 12.451171875  C 48.882378472222214 16.281467013888886  50 20.464409722222214  50 25  C 50 29.53559027777778  48.882378472222214 33.71853298611111  46.64713541666667 37.548828125  C 44.411892361111114 41.37912326388889  41.37912326388889 44.41189236111111  37.548828125 46.64713541666667  C 33.718532986111114 48.88237847222223  29.53559027777778 50  25 50  C 20.464409722222225 50  16.28146701388889 48.88237847222223  12.451171875 46.64713541666667  C 8.620876736111112 44.41189236111111  5.588107638888889 41.37912326388889  3.3528645833333335 37.548828125  C 1.1176215277777777 33.71853298611111  0 29.53559027777778  0 25  C 0 20.464409722222214  1.1176215277777777 16.281467013888886  3.3528645833333335 12.451171875  C 5.588107638888889 8.62087673611111  8.620876736111112 5.588107638888884  12.451171875 3.3528645833333313  C 16.28146701388889 1.1176215277777735  20.464409722222225 0  25 0  C 29.53559027777778 0  33.718532986111114 1.1176215277777735  37.548828125 3.3528645833333313  C 41.37912326388889 5.588107638888884  44.411892361111114 8.62087673611111  46.64713541666667 12.451171875  Z " fill-rule="evenodd" />
    </mask>
  </defs>
  <g transform="matrix(1 0 0 1 -61 -25 )">
    <path d="M 37.19075520833333 21.142578125  C 37.396918402777786 21.348741319444443  37.5 21.592881944444443  37.5 21.875  L 37.5 28.125  C 37.5 28.407118055555557  37.396918402777786 28.651258680555557  37.19075520833333 28.857421875  C 36.98459201388889 29.063585069444443  36.74045138888889 29.166666666666664  36.45833333333333 29  L 25 29  L 25 35.416666666666664  C 25 35.72048611111111  24.90234375 35.970052083333336  24.70703125 36.165364583333336  C 24.51171875 36.360677083333336  24.26215277777778 36.458333333333336  23.958333333333336 36.458333333333336  C 23.697916666666664 36.458333333333336  23.4375 36.349826388888886  23.177083333333336 36.1328125  L 12.79296875 25.748697916666664  C 12.59765625 25.553385416666664  12.5 25.303819444444443  12.5 25  C 12.5 24.696180555555554  12.59765625 24.446614583333332  12.79296875 24.251302083333332  L 23.209635416666664 13.834635416666668  C 23.404947916666664 13.639322916666668  23.654513888888893 13.541666666666668  23.958333333333336 13.541666666666668  C 24.240451388888893 13.541666666666668  24.484592013888893 13.644748263888884  24.690755208333336 13.850911458333332  C 24.896918402777775 14.057074652777773  25 14.301215277777773  25 14.583333333333332  L 25 21  L 36.45833333333333 21  C 36.74045138888889 20.833333333333332  36.98459201388889 20.936414930555557  37.19075520833333 21.142578125  Z M 40.33203125 33.88671875  C 41.91623263888889 31.174045138888886  42.70833333333333 28.211805555555557  42.70833333333333 25  C 42.70833333333333 21.788194444444443  41.91623263888889 18.82595486111111  40.33203125 16.11328125  C 38.747829861111114 13.400607638888884  36.599392361111114 11.252170138888884  33.88671875 9.66796875  C 31.17404513888889 8.08376736111111  28.211805555555557 7.291666666666669  25 7.291666666666669  C 21.788194444444446 7.291666666666669  18.825954861111114 8.08376736111111  16.11328125 9.66796875  C 13.40060763888889 11.252170138888884  11.25217013888889 13.400607638888884  9.66796875 16.11328125  C 8.083767361111112 18.82595486111111  7.291666666666667 21.788194444444443  7.291666666666667 25  C 7.291666666666667 28.211805555555557  8.083767361111112 31.174045138888886  9.66796875 33.88671875  C 11.25217013888889 36.59939236111111  13.40060763888889 38.74782986111111  16.11328125 40.33203125  C 18.825954861111114 41.91623263888889  21.788194444444446 42.70833333333333  25 42.70833333333333  C 28.211805555555557 42.70833333333333  31.17404513888889 41.91623263888889  33.88671875 40.33203125  C 36.599392361111114 38.74782986111111  38.747829861111114 36.59939236111111  40.33203125 33.88671875  Z M 46.64713541666667 12.451171875  C 48.882378472222214 16.281467013888886  50 20.464409722222214  50 25  C 50 29.53559027777778  48.882378472222214 33.71853298611111  46.64713541666667 37.548828125  C 44.411892361111114 41.37912326388889  41.37912326388889 44.41189236111111  37.548828125 46.64713541666667  C 33.718532986111114 48.88237847222223  29.53559027777778 50  25 50  C 20.464409722222225 50  16.28146701388889 48.88237847222223  12.451171875 46.64713541666667  C 8.620876736111112 44.41189236111111  5.588107638888889 41.37912326388889  3.3528645833333335 37.548828125  C 1.1176215277777777 33.71853298611111  0 29.53559027777778  0 25  C 0 20.464409722222214  1.1176215277777777 16.281467013888886  3.3528645833333335 12.451171875  C 5.588107638888889 8.62087673611111  8.620876736111112 5.588107638888884  12.451171875 3.3528645833333313  C 16.28146701388889 1.1176215277777735  20.464409722222225 0  25 0  C 29.53559027777778 0  33.718532986111114 1.1176215277777735  37.548828125 3.3528645833333313  C 41.37912326388889 5.588107638888884  44.411892361111114 8.62087673611111  46.64713541666667 12.451171875  Z " fill-rule="nonzero" fill="rgba(255, 255, 255, 1)" stroke="none" transform="matrix(1 0 0 1 61 25 )" class="fill" />
    <path d="M 37.19075520833333 21.142578125  C 37.396918402777786 21.348741319444443  37.5 21.592881944444443  37.5 21.875  L 37.5 28.125  C 37.5 28.407118055555557  37.396918402777786 28.651258680555557  37.19075520833333 28.857421875  C 36.98459201388889 29.063585069444443  36.74045138888889 29.166666666666664  36.45833333333333 29  L 25 29  L 25 35.416666666666664  C 25 35.72048611111111  24.90234375 35.970052083333336  24.70703125 36.165364583333336  C 24.51171875 36.360677083333336  24.26215277777778 36.458333333333336  23.958333333333336 36.458333333333336  C 23.697916666666664 36.458333333333336  23.4375 36.349826388888886  23.177083333333336 36.1328125  L 12.79296875 25.748697916666664  C 12.59765625 25.553385416666664  12.5 25.303819444444443  12.5 25  C 12.5 24.696180555555554  12.59765625 24.446614583333332  12.79296875 24.251302083333332  L 23.209635416666664 13.834635416666668  C 23.404947916666664 13.639322916666668  23.654513888888893 13.541666666666668  23.958333333333336 13.541666666666668  C 24.240451388888893 13.541666666666668  24.484592013888893 13.644748263888884  24.690755208333336 13.850911458333332  C 24.896918402777775 14.057074652777773  25 14.301215277777773  25 14.583333333333332  L 25 21  L 36.45833333333333 21  C 36.74045138888889 20.833333333333332  36.98459201388889 20.936414930555557  37.19075520833333 21.142578125  Z " stroke-width="0" stroke-dasharray="0" stroke="rgba(255, 255, 255, 0)" fill="none" transform="matrix(1 0 0 1 61 25 )" class="stroke" mask="url(#Clip245)" />
    <path d="M 40.33203125 33.88671875  C 41.91623263888889 31.174045138888886  42.70833333333333 28.211805555555557  42.70833333333333 25  C 42.70833333333333 21.788194444444443  41.91623263888889 18.82595486111111  40.33203125 16.11328125  C 38.747829861111114 13.400607638888884  36.599392361111114 11.252170138888884  33.88671875 9.66796875  C 31.17404513888889 8.08376736111111  28.211805555555557 7.291666666666669  25 7.291666666666669  C 21.788194444444446 7.291666666666669  18.825954861111114 8.08376736111111  16.11328125 9.66796875  C 13.40060763888889 11.252170138888884  11.25217013888889 13.400607638888884  9.66796875 16.11328125  C 8.083767361111112 18.82595486111111  7.291666666666667 21.788194444444443  7.291666666666667 25  C 7.291666666666667 28.211805555555557  8.083767361111112 31.174045138888886  9.66796875 33.88671875  C 11.25217013888889 36.59939236111111  13.40060763888889 38.74782986111111  16.11328125 40.33203125  C 18.825954861111114 41.91623263888889  21.788194444444446 42.70833333333333  25 42.70833333333333  C 28.211805555555557 42.70833333333333  31.17404513888889 41.91623263888889  33.88671875 40.33203125  C 36.599392361111114 38.74782986111111  38.747829861111114 36.59939236111111  40.33203125 33.88671875  Z " stroke-width="0" stroke-dasharray="0" stroke="rgba(255, 255, 255, 0)" fill="none" transform="matrix(1 0 0 1 61 25 )" class="stroke" mask="url(#Clip245)" />
    <path d="M 46.64713541666667 12.451171875  C 48.882378472222214 16.281467013888886  50 20.464409722222214  50 25  C 50 29.53559027777778  48.882378472222214 33.71853298611111  46.64713541666667 37.548828125  C 44.411892361111114 41.37912326388889  41.37912326388889 44.41189236111111  37.548828125 46.64713541666667  C 33.718532986111114 48.88237847222223  29.53559027777778 50  25 50  C 20.464409722222225 50  16.28146701388889 48.88237847222223  12.451171875 46.64713541666667  C 8.620876736111112 44.41189236111111  5.588107638888889 41.37912326388889  3.3528645833333335 37.548828125  C 1.1176215277777777 33.71853298611111  0 29.53559027777778  0 25  C 0 20.464409722222214  1.1176215277777777 16.281467013888886  3.3528645833333335 12.451171875  C 5.588107638888889 8.62087673611111  8.620876736111112 5.588107638888884  12.451171875 3.3528645833333313  C 16.28146701388889 1.1176215277777735  20.464409722222225 0  25 0  C 29.53559027777778 0  33.718532986111114 1.1176215277777735  37.548828125 3.3528645833333313  C 41.37912326388889 5.588107638888884  44.411892361111114 8.62087673611111  46.64713541666667 12.451171875  Z " stroke-width="0" stroke-dasharray="0" stroke="rgba(255, 255, 255, 0)" fill="none" transform="matrix(1 0 0 1 61 25 )" class="stroke" mask="url(#Clip245)" />
  </g>
</svg>