<?xml version="1.0" encoding="utf-8"?>
<svg version="1.1" xmlns:xlink="http://www.w3.org/1999/xlink" width="13px" height="13px" viewBox="725 477 13 13" xmlns="http://www.w3.org/2000/svg">
  <path d="M 731.5 477  C 735.14 477  738 479.86  738 483.5  C 738 487.14  735.14 490  731.5 490  C 727.86 490  725 487.14  725 483.5  C 725 479.86  727.86 477  731.5 477  Z " fill-rule="nonzero" fill="rgba(240, 240, 240, 1)" stroke="none" class="fill" />
  <path d="M 731.5 477.5  C 734.86 477.5  737.5 480.14  737.5 483.5  C 737.5 486.86  734.86 489.5  731.5 489.5  C 728.14 489.5  725.5 486.86  725.5 483.5  C 725.5 480.14  728.14 477.5  731.5 477.5  Z " stroke-width="1" stroke-dasharray="0" stroke="rgba(121, 121, 121, 1)" fill="none" class="stroke" stroke-dashoffset="0.5" />
  <path d="M 731.5 486.75  C 729.68 486.75  728.25 485.32  728.25 483.5  C 728.25 481.68  729.68 480.25  731.5 480.25  C 733.32 480.25  734.75 481.68  734.75 483.5  C 734.75 485.32  733.32 486.75  731.5 486.75  " fill-rule="nonzero" fill="rgba(121, 121, 121, 1)" stroke="none" class="stroke btn_check" />
</svg>