<?xml version="1.0" encoding="utf-8"?>
<svg version="1.1" xmlns:xlink="http://www.w3.org/1999/xlink" width="43px" height="28px" xmlns="http://www.w3.org/2000/svg">
  <defs>
    <pattern id="BGPattern" patternUnits="userSpaceOnUse" alignment="0 0" imageRepeat="None" />
    <mask fill="white" id="Clip239">
      <path d="M 18.431770833333335 16.37890625  C 18.566145833333334 16.21484375  18.633333333333333 16.005208333333332  18.633333333333333 15.75  L 18.633333333333333 12.25  C 18.633333333333333 11.994791666666666  18.566145833333334 11.78515625  18.431770833333335 11.62109375  C 18.297395833333333 11.45703125  18.125694444444445 11.375  17.916666666666668 11.375  L 13.616666666666665 11.375  L 13.616666666666665 6.125  C 13.616666666666665 5.869791666666666  13.549479166666668 5.66015625  13.415104166666666 5.49609375  C 13.280729166666665 5.33203125  13.10902777777778 5.25  12.9 5.25  L 10.033333333333333 5.25  C 9.824305555555556 5.25  9.652604166666666 5.33203125  9.518229166666666 5.49609375  C 9.383854166666667 5.66015625  9.316666666666666 5.869791666666666  9.316666666666666 6.125  L 9.316666666666666 11.375  L 5.016666666666667 11.375  C 4.8076388888888895 11.375  4.635937500000001 11.45703125  4.5015625 11.62109375  C 4.3671875 11.78515625  4.3 11.994791666666666  4.3 12.25  L 4.3 15.75  C 4.3 16.005208333333332  4.3671875 16.21484375  4.5015625 16.37890625  C 4.635937500000001 16.54296875  4.8076388888888895 16.625  5.016666666666667 16.625  L 9.316666666666666 16.625  L 9.316666666666666 21.875  C 9.316666666666666 22.130208333333332  9.383854166666667 22.33984375  9.518229166666666 22.50390625  C 9.652604166666666 22.66796875  9.824305555555556 22.75  10.033333333333333 22.75  L 12.9 22.75  C 13.10902777777778 22.75  13.280729166666665 22.66796875  13.415104166666666 22.50390625  C 13.549479166666668 22.33984375  13.616666666666665 22.130208333333332  13.616666666666665 21.875  L 13.616666666666665 16.625  L 17.916666666666668 16.625  C 18.125694444444445 16.625  18.297395833333333 16.54296875  18.431770833333335 16.37890625  Z M 30.69348958333333 19.974609375  C 31.253385416666667 19.291015625  31.53333333333333 18.466145833333332  31.53333333333333 17.5  C 31.53333333333333 16.533854166666664  31.253385416666667 15.708984375  30.69348958333333 15.025390625  C 30.13359375 14.341796875  29.457986111111115 14  28.666666666666664 14  C 27.875347222222224 14  27.199739583333333 14.341796875  26.63984375 15.025390625  C 26.07994791666667 15.708984375  25.8 16.533854166666664  25.8 17.5  C 25.8 18.466145833333332  26.07994791666667 19.291015625  26.63984375 19.974609375  C 27.199739583333333 20.658203125  27.875347222222224 21  28.666666666666664 21  C 29.457986111111115 21  30.13359375 20.658203125  30.69348958333333 19.974609375  Z M 36.426822916666666 12.974609375  C 36.98671875 12.291015625  37.266666666666666 11.466145833333332  37.266666666666666 10.5  C 37.266666666666666 9.533854166666666  36.98671875 8.708984375  36.426822916666666 8.025390625  C 35.86692708333333 7.341796875  35.191319444444446 7  34.4 7  C 33.60868055555556 7  32.93307291666667 7.341796875  32.37317708333333 8.025390625  C 31.81328125 8.708984375  31.53333333333333 9.533854166666666  31.53333333333333 10.5  C 31.53333333333333 11.466145833333332  31.81328125 12.291015625  32.37317708333333 12.974609375  C 32.93307291666667 13.658203125  33.60868055555556 14  34.4 14  C 35.191319444444446 14  35.86692708333333 13.658203125  36.426822916666666 12.974609375  Z M 39.640625 4.1015625  C 41.88020833333334 6.8359375  43.00000000000001 10.135416666666666  43 14  C 43.00000000000001 17.864583333333332  41.88020833333334 21.1640625  39.640625 23.8984375  C 37.40104166666667 26.6328125  34.69861111111112 28  31.53333333333333 28  C 28.666666666666664 28  26.143402777777784 26.833333333333332  23.963541666666664 24.5  L 19.036458333333332 24.5  C 16.856597222222224 26.833333333333332  14.333333333333332 28  11.466666666666667 28  C 8.301388888888889 28  5.598958333333334 26.6328125  3.359375 23.8984375  C 1.1197916666666667 21.1640625  0 17.864583333333332  0 14  C 0 10.135416666666666  1.1197916666666667 6.8359375  3.359375 4.1015625  C 5.598958333333334 1.3671875  8.301388888888889 0  11.466666666666667 0  L 31.53333333333333 0  C 34.69861111111112 0  37.40104166666667 1.3671875  39.640625 4.1015625  Z " fill-rule="evenodd" />
    </mask>
  </defs>
  <g transform="matrix(1 0 0 1 -12 -116 )">
    <path d="M 18.431770833333335 16.37890625  C 18.566145833333334 16.21484375  18.633333333333333 16.005208333333332  18.633333333333333 15.75  L 18.633333333333333 12.25  C 18.633333333333333 11.994791666666666  18.566145833333334 11.78515625  18.431770833333335 11.62109375  C 18.297395833333333 11.45703125  18.125694444444445 11.375  17.916666666666668 11.375  L 13.616666666666665 11.375  L 13.616666666666665 6.125  C 13.616666666666665 5.869791666666666  13.549479166666668 5.66015625  13.415104166666666 5.49609375  C 13.280729166666665 5.33203125  13.10902777777778 5.25  12.9 5.25  L 10.033333333333333 5.25  C 9.824305555555556 5.25  9.652604166666666 5.33203125  9.518229166666666 5.49609375  C 9.383854166666667 5.66015625  9.316666666666666 5.869791666666666  9.316666666666666 6.125  L 9.316666666666666 11.375  L 5.016666666666667 11.375  C 4.8076388888888895 11.375  4.635937500000001 11.45703125  4.5015625 11.62109375  C 4.3671875 11.78515625  4.3 11.994791666666666  4.3 12.25  L 4.3 15.75  C 4.3 16.005208333333332  4.3671875 16.21484375  4.5015625 16.37890625  C 4.635937500000001 16.54296875  4.8076388888888895 16.625  5.016666666666667 16.625  L 9.316666666666666 16.625  L 9.316666666666666 21.875  C 9.316666666666666 22.130208333333332  9.383854166666667 22.33984375  9.518229166666666 22.50390625  C 9.652604166666666 22.66796875  9.824305555555556 22.75  10.033333333333333 22.75  L 12.9 22.75  C 13.10902777777778 22.75  13.280729166666665 22.66796875  13.415104166666666 22.50390625  C 13.549479166666668 22.33984375  13.616666666666665 22.130208333333332  13.616666666666665 21.875  L 13.616666666666665 16.625  L 17.916666666666668 16.625  C 18.125694444444445 16.625  18.297395833333333 16.54296875  18.431770833333335 16.37890625  Z M 30.69348958333333 19.974609375  C 31.253385416666667 19.291015625  31.53333333333333 18.466145833333332  31.53333333333333 17.5  C 31.53333333333333 16.533854166666664  31.253385416666667 15.708984375  30.69348958333333 15.025390625  C 30.13359375 14.341796875  29.457986111111115 14  28.666666666666664 14  C 27.875347222222224 14  27.199739583333333 14.341796875  26.63984375 15.025390625  C 26.07994791666667 15.708984375  25.8 16.533854166666664  25.8 17.5  C 25.8 18.466145833333332  26.07994791666667 19.291015625  26.63984375 19.974609375  C 27.199739583333333 20.658203125  27.875347222222224 21  28.666666666666664 21  C 29.457986111111115 21  30.13359375 20.658203125  30.69348958333333 19.974609375  Z M 36.426822916666666 12.974609375  C 36.98671875 12.291015625  37.266666666666666 11.466145833333332  37.266666666666666 10.5  C 37.266666666666666 9.533854166666666  36.98671875 8.708984375  36.426822916666666 8.025390625  C 35.86692708333333 7.341796875  35.191319444444446 7  34.4 7  C 33.60868055555556 7  32.93307291666667 7.341796875  32.37317708333333 8.025390625  C 31.81328125 8.708984375  31.53333333333333 9.533854166666666  31.53333333333333 10.5  C 31.53333333333333 11.466145833333332  31.81328125 12.291015625  32.37317708333333 12.974609375  C 32.93307291666667 13.658203125  33.60868055555556 14  34.4 14  C 35.191319444444446 14  35.86692708333333 13.658203125  36.426822916666666 12.974609375  Z M 39.640625 4.1015625  C 41.88020833333334 6.8359375  43.00000000000001 10.135416666666666  43 14  C 43.00000000000001 17.864583333333332  41.88020833333334 21.1640625  39.640625 23.8984375  C 37.40104166666667 26.6328125  34.69861111111112 28  31.53333333333333 28  C 28.666666666666664 28  26.143402777777784 26.833333333333332  23.963541666666664 24.5  L 19.036458333333332 24.5  C 16.856597222222224 26.833333333333332  14.333333333333332 28  11.466666666666667 28  C 8.301388888888889 28  5.598958333333334 26.6328125  3.359375 23.8984375  C 1.1197916666666667 21.1640625  0 17.864583333333332  0 14  C 0 10.135416666666666  1.1197916666666667 6.8359375  3.359375 4.1015625  C 5.598958333333334 1.3671875  8.301388888888889 0  11.466666666666667 0  L 31.53333333333333 0  C 34.69861111111112 0  37.40104166666667 1.3671875  39.640625 4.1015625  Z " fill-rule="nonzero" fill="rgba(127, 127, 127, 1)" stroke="none" transform="matrix(1 0 0 1 12 116 )" class="fill" />
    <path d="M 18.431770833333335 16.37890625  C 18.566145833333334 16.21484375  18.633333333333333 16.005208333333332  18.633333333333333 15.75  L 18.633333333333333 12.25  C 18.633333333333333 11.994791666666666  18.566145833333334 11.78515625  18.431770833333335 11.62109375  C 18.297395833333333 11.45703125  18.125694444444445 11.375  17.916666666666668 11.375  L 13.616666666666665 11.375  L 13.616666666666665 6.125  C 13.616666666666665 5.869791666666666  13.549479166666668 5.66015625  13.415104166666666 5.49609375  C 13.280729166666665 5.33203125  13.10902777777778 5.25  12.9 5.25  L 10.033333333333333 5.25  C 9.824305555555556 5.25  9.652604166666666 5.33203125  9.518229166666666 5.49609375  C 9.383854166666667 5.66015625  9.316666666666666 5.869791666666666  9.316666666666666 6.125  L 9.316666666666666 11.375  L 5.016666666666667 11.375  C 4.8076388888888895 11.375  4.635937500000001 11.45703125  4.5015625 11.62109375  C 4.3671875 11.78515625  4.3 11.994791666666666  4.3 12.25  L 4.3 15.75  C 4.3 16.005208333333332  4.3671875 16.21484375  4.5015625 16.37890625  C 4.635937500000001 16.54296875  4.8076388888888895 16.625  5.016666666666667 16.625  L 9.316666666666666 16.625  L 9.316666666666666 21.875  C 9.316666666666666 22.130208333333332  9.383854166666667 22.33984375  9.518229166666666 22.50390625  C 9.652604166666666 22.66796875  9.824305555555556 22.75  10.033333333333333 22.75  L 12.9 22.75  C 13.10902777777778 22.75  13.280729166666665 22.66796875  13.415104166666666 22.50390625  C 13.549479166666668 22.33984375  13.616666666666665 22.130208333333332  13.616666666666665 21.875  L 13.616666666666665 16.625  L 17.916666666666668 16.625  C 18.125694444444445 16.625  18.297395833333333 16.54296875  18.431770833333335 16.37890625  Z " stroke-width="0" stroke-dasharray="0" stroke="rgba(255, 255, 255, 0)" fill="none" transform="matrix(1 0 0 1 12 116 )" class="stroke" mask="url(#Clip239)" />
    <path d="M 30.69348958333333 19.974609375  C 31.253385416666667 19.291015625  31.53333333333333 18.466145833333332  31.53333333333333 17.5  C 31.53333333333333 16.533854166666664  31.253385416666667 15.708984375  30.69348958333333 15.025390625  C 30.13359375 14.341796875  29.457986111111115 14  28.666666666666664 14  C 27.875347222222224 14  27.199739583333333 14.341796875  26.63984375 15.025390625  C 26.07994791666667 15.708984375  25.8 16.533854166666664  25.8 17.5  C 25.8 18.466145833333332  26.07994791666667 19.291015625  26.63984375 19.974609375  C 27.199739583333333 20.658203125  27.875347222222224 21  28.666666666666664 21  C 29.457986111111115 21  30.13359375 20.658203125  30.69348958333333 19.974609375  Z " stroke-width="0" stroke-dasharray="0" stroke="rgba(255, 255, 255, 0)" fill="none" transform="matrix(1 0 0 1 12 116 )" class="stroke" mask="url(#Clip239)" />
    <path d="M 36.426822916666666 12.974609375  C 36.98671875 12.291015625  37.266666666666666 11.466145833333332  37.266666666666666 10.5  C 37.266666666666666 9.533854166666666  36.98671875 8.708984375  36.426822916666666 8.025390625  C 35.86692708333333 7.341796875  35.191319444444446 7  34.4 7  C 33.60868055555556 7  32.93307291666667 7.341796875  32.37317708333333 8.025390625  C 31.81328125 8.708984375  31.53333333333333 9.533854166666666  31.53333333333333 10.5  C 31.53333333333333 11.466145833333332  31.81328125 12.291015625  32.37317708333333 12.974609375  C 32.93307291666667 13.658203125  33.60868055555556 14  34.4 14  C 35.191319444444446 14  35.86692708333333 13.658203125  36.426822916666666 12.974609375  Z " stroke-width="0" stroke-dasharray="0" stroke="rgba(255, 255, 255, 0)" fill="none" transform="matrix(1 0 0 1 12 116 )" class="stroke" mask="url(#Clip239)" />
    <path d="M 39.640625 4.1015625  C 41.88020833333334 6.8359375  43.00000000000001 10.135416666666666  43 14  C 43.00000000000001 17.864583333333332  41.88020833333334 21.1640625  39.640625 23.8984375  C 37.40104166666667 26.6328125  34.69861111111112 28  31.53333333333333 28  C 28.666666666666664 28  26.143402777777784 26.833333333333332  23.963541666666664 24.5  L 19.036458333333332 24.5  C 16.856597222222224 26.833333333333332  14.333333333333332 28  11.466666666666667 28  C 8.301388888888889 28  5.598958333333334 26.6328125  3.359375 23.8984375  C 1.1197916666666667 21.1640625  0 17.864583333333332  0 14  C 0 10.135416666666666  1.1197916666666667 6.8359375  3.359375 4.1015625  C 5.598958333333334 1.3671875  8.301388888888889 0  11.466666666666667 0  L 31.53333333333333 0  C 34.69861111111112 0  37.40104166666667 1.3671875  39.640625 4.1015625  Z " stroke-width="0" stroke-dasharray="0" stroke="rgba(255, 255, 255, 0)" fill="none" transform="matrix(1 0 0 1 12 116 )" class="stroke" mask="url(#Clip239)" />
  </g>
</svg>