<?xml version="1.0" encoding="utf-8"?>
<svg version="1.1" xmlns:xlink="http://www.w3.org/1999/xlink" width="43px" height="28px" xmlns="http://www.w3.org/2000/svg">
  <defs>
    <pattern id="BGPattern" patternUnits="userSpaceOnUse" alignment="0 0" imageRepeat="None" />
    <mask fill="white" id="Clip240">
      <path d="M 29.34654017857143 15.6953125  C 29.634486607142854 16.120659722222218  30.090401785714285 16.333333333333332  30.714285714285715 16.333333333333332  L 38.032924107142854 16.333333333333332  C 37.95293898809524 16.40625  37.87295386904763 16.470052083333332  37.79296875 16.524739583333332  C 37.71298363095239 16.579427083333332  37.640997023809526 16.625  37.57700892857143 16.661458333333332  L 37.50502232142857 16.734375  L 22.55580357142857 27.671875  C 22.267857142857146 27.890625  21.91592261904762 28  21.5 28  C 21.084077380952383 28  20.73214285714286 27.890625  20.444196428571427 27.671875  L 5.470982142857142 16.697916666666668  C 5.390997023809524 16.673611111111114  5.223028273809525 16.552083333333332  4.967075892857143 16.333333333333332  L 13.821428571428573 16.333333333333332  C 14.173363095238097 16.333333333333332  14.489304315476192 16.251302083333332  14.769252232142858 16.087239583333332  C 15.049200148809526 15.923177083333332  15.229166666666668 15.713541666666668  15.309151785714285 15.458333333333332  L 16.988839285714285 10.3359375  L 21.54799107142857 22.494791666666664  C 21.643973214285715 22.73784722222222  21.82793898809524 22.938368055555554  22.099888392857146 23.096354166666664  C 22.37183779761905 23.25434027777778  22.683779761904766 23.333333333333336  23.035714285714285 23.333333333333336  C 23.37165178571429 23.333333333333336  23.67559523809524 23.25434027777778  23.947544642857146 23.096354166666664  C 24.21949404761905 22.938368055555554  24.40345982142857 22.73784722222222  24.499441964285715 22.494791666666664  L 28.00279017857143 13.653645833333334  L 29.34654017857143 15.6953125  Z M 39.952566964285715 2.2604166666666656  C 41.98418898809524 3.7673611111111094  43 5.8576388888888875  43 8.53125  C 43 10.293402777777775  42.176153273809526 12.116319444444441  40.52845982142857 14  L 31.674107142857146 14  L 29.01060267857143 9.971354166666666  C 28.88262648809524 9.764756944444443  28.67866443452381 9.600694444444443  28.398716517857146 9.479166666666666  C 28.11876860119048 9.357638888888888  27.82682291666667 9.309027777777775  27.522879464285715 9.333333333333334  C 26.803013392857146 9.394097222222221  26.35509672619048 9.673611111111109  26.179129464285715 10.171875  L 23.083705357142854 18.010416666666668  L 18.380580357142858 5.505208333333334  C 18.284598214285715 5.262152777777775  18.096633184523814 5.061631944444441  17.816685267857142 4.903645833333334  C 17.536737351190478 4.745659722222221  17.220796130952383 4.666666666666666  16.868861607142858 4.666666666666666  C 16.516927083333336 4.666666666666666  16.20498511904762 4.748697916666666  15.933035714285715 4.912760416666666  C 15.661086309523812 5.076822916666666  15.485119047619047 5.286458333333334  15.405133928571427 5.541666666666666  L 12.621651785714285 14  L 2.4715401785714284 14  C 0.823846726190476 12.116319444444441  0 10.293402777777775  0 8.53125  C 0 5.8576388888888875  1.0158110119047616 3.7673611111111094  3.0474330357142856 2.2604166666666656  C 5.07905505952381 0.7534722222222219  7.886532738095237 0  11.469866071428573 0  C 12.461681547619047 0  13.473493303571427 0.13064236111110938  14.505301339285715 0.39192708333333437  C 15.537109375 0.6532118055555531  16.496930803571427 1.0056423611111094  17.384765625 1.44921875  C 18.272600446428577 1.8927951388888875  19.036458333333336 2.309027777777775  19.676339285714285 2.6979166666666656  C 20.31622023809524 3.086805555555553  20.924107142857142 3.5  21.5 3.9375  C 22.075892857142854 3.5  22.683779761904766 3.086805555555553  23.323660714285715 2.6979166666666656  C 23.96354166666667 2.309027777777775  24.72739955357143 1.8927951388888875  25.615234375 1.44921875  C 26.50306919642857 1.0056423611111094  27.462890625 0.6532118055555531  28.494698660714285 0.39192708333333437  C 29.52650669642857 0.13064236111110938  30.538318452380956 0  31.53013392857143 0  C 35.113467261904766 0  37.9209449404762 0.7534722222222219  39.952566964285715 2.2604166666666656  Z " fill-rule="evenodd" />
    </mask>
  </defs>
  <g transform="matrix(1 0 0 1 -12 -176 )">
    <path d="M 29.34654017857143 15.6953125  C 29.634486607142854 16.120659722222218  30.090401785714285 16.333333333333332  30.714285714285715 16.333333333333332  L 38.032924107142854 16.333333333333332  C 37.95293898809524 16.40625  37.87295386904763 16.470052083333332  37.79296875 16.524739583333332  C 37.71298363095239 16.579427083333332  37.640997023809526 16.625  37.57700892857143 16.661458333333332  L 37.50502232142857 16.734375  L 22.55580357142857 27.671875  C 22.267857142857146 27.890625  21.91592261904762 28  21.5 28  C 21.084077380952383 28  20.73214285714286 27.890625  20.444196428571427 27.671875  L 5.470982142857142 16.697916666666668  C 5.390997023809524 16.673611111111114  5.223028273809525 16.552083333333332  4.967075892857143 16.333333333333332  L 13.821428571428573 16.333333333333332  C 14.173363095238097 16.333333333333332  14.489304315476192 16.251302083333332  14.769252232142858 16.087239583333332  C 15.049200148809526 15.923177083333332  15.229166666666668 15.713541666666668  15.309151785714285 15.458333333333332  L 16.988839285714285 10.3359375  L 21.54799107142857 22.494791666666664  C 21.643973214285715 22.73784722222222  21.82793898809524 22.938368055555554  22.099888392857146 23.096354166666664  C 22.37183779761905 23.25434027777778  22.683779761904766 23.333333333333336  23.035714285714285 23.333333333333336  C 23.37165178571429 23.333333333333336  23.67559523809524 23.25434027777778  23.947544642857146 23.096354166666664  C 24.21949404761905 22.938368055555554  24.40345982142857 22.73784722222222  24.499441964285715 22.494791666666664  L 28.00279017857143 13.653645833333334  L 29.34654017857143 15.6953125  Z M 39.952566964285715 2.2604166666666656  C 41.98418898809524 3.7673611111111094  43 5.8576388888888875  43 8.53125  C 43 10.293402777777775  42.176153273809526 12.116319444444441  40.52845982142857 14  L 31.674107142857146 14  L 29.01060267857143 9.971354166666666  C 28.88262648809524 9.764756944444443  28.67866443452381 9.600694444444443  28.398716517857146 9.479166666666666  C 28.11876860119048 9.357638888888888  27.82682291666667 9.309027777777775  27.522879464285715 9.333333333333334  C 26.803013392857146 9.394097222222221  26.35509672619048 9.673611111111109  26.179129464285715 10.171875  L 23.083705357142854 18.010416666666668  L 18.380580357142858 5.505208333333334  C 18.284598214285715 5.262152777777775  18.096633184523814 5.061631944444441  17.816685267857142 4.903645833333334  C 17.536737351190478 4.745659722222221  17.220796130952383 4.666666666666666  16.868861607142858 4.666666666666666  C 16.516927083333336 4.666666666666666  16.20498511904762 4.748697916666666  15.933035714285715 4.912760416666666  C 15.661086309523812 5.076822916666666  15.485119047619047 5.286458333333334  15.405133928571427 5.541666666666666  L 12.621651785714285 14  L 2.4715401785714284 14  C 0.823846726190476 12.116319444444441  0 10.293402777777775  0 8.53125  C 0 5.8576388888888875  1.0158110119047616 3.7673611111111094  3.0474330357142856 2.2604166666666656  C 5.07905505952381 0.7534722222222219  7.886532738095237 0  11.469866071428573 0  C 12.461681547619047 0  13.473493303571427 0.13064236111110938  14.505301339285715 0.39192708333333437  C 15.537109375 0.6532118055555531  16.496930803571427 1.0056423611111094  17.384765625 1.44921875  C 18.272600446428577 1.8927951388888875  19.036458333333336 2.309027777777775  19.676339285714285 2.6979166666666656  C 20.31622023809524 3.086805555555553  20.924107142857142 3.5  21.5 3.9375  C 22.075892857142854 3.5  22.683779761904766 3.086805555555553  23.323660714285715 2.6979166666666656  C 23.96354166666667 2.309027777777775  24.72739955357143 1.8927951388888875  25.615234375 1.44921875  C 26.50306919642857 1.0056423611111094  27.462890625 0.6532118055555531  28.494698660714285 0.39192708333333437  C 29.52650669642857 0.13064236111110938  30.538318452380956 0  31.53013392857143 0  C 35.113467261904766 0  37.9209449404762 0.7534722222222219  39.952566964285715 2.2604166666666656  Z " fill-rule="nonzero" fill="rgba(127, 127, 127, 1)" stroke="none" transform="matrix(1 0 0 1 12 176 )" class="fill" />
    <path d="M 29.34654017857143 15.6953125  C 29.634486607142854 16.120659722222218  30.090401785714285 16.333333333333332  30.714285714285715 16.333333333333332  L 38.032924107142854 16.333333333333332  C 37.95293898809524 16.40625  37.87295386904763 16.470052083333332  37.79296875 16.524739583333332  C 37.71298363095239 16.579427083333332  37.640997023809526 16.625  37.57700892857143 16.661458333333332  L 37.50502232142857 16.734375  L 22.55580357142857 27.671875  C 22.267857142857146 27.890625  21.91592261904762 28  21.5 28  C 21.084077380952383 28  20.73214285714286 27.890625  20.444196428571427 27.671875  L 5.470982142857142 16.697916666666668  C 5.390997023809524 16.673611111111114  5.223028273809525 16.552083333333332  4.967075892857143 16.333333333333332  L 13.821428571428573 16.333333333333332  C 14.173363095238097 16.333333333333332  14.489304315476192 16.251302083333332  14.769252232142858 16.087239583333332  C 15.049200148809526 15.923177083333332  15.229166666666668 15.713541666666668  15.309151785714285 15.458333333333332  L 16.988839285714285 10.3359375  L 21.54799107142857 22.494791666666664  C 21.643973214285715 22.73784722222222  21.82793898809524 22.938368055555554  22.099888392857146 23.096354166666664  C 22.37183779761905 23.25434027777778  22.683779761904766 23.333333333333336  23.035714285714285 23.333333333333336  C 23.37165178571429 23.333333333333336  23.67559523809524 23.25434027777778  23.947544642857146 23.096354166666664  C 24.21949404761905 22.938368055555554  24.40345982142857 22.73784722222222  24.499441964285715 22.494791666666664  L 28.00279017857143 13.653645833333334  L 29.34654017857143 15.6953125  Z " stroke-width="0" stroke-dasharray="0" stroke="rgba(255, 255, 255, 0)" fill="none" transform="matrix(1 0 0 1 12 176 )" class="stroke" mask="url(#Clip240)" />
    <path d="M 39.952566964285715 2.2604166666666656  C 41.98418898809524 3.7673611111111094  43 5.8576388888888875  43 8.53125  C 43 10.293402777777775  42.176153273809526 12.116319444444441  40.52845982142857 14  L 31.674107142857146 14  L 29.01060267857143 9.971354166666666  C 28.88262648809524 9.764756944444443  28.67866443452381 9.600694444444443  28.398716517857146 9.479166666666666  C 28.11876860119048 9.357638888888888  27.82682291666667 9.309027777777775  27.522879464285715 9.333333333333334  C 26.803013392857146 9.394097222222221  26.35509672619048 9.673611111111109  26.179129464285715 10.171875  L 23.083705357142854 18.010416666666668  L 18.380580357142858 5.505208333333334  C 18.284598214285715 5.262152777777775  18.096633184523814 5.061631944444441  17.816685267857142 4.903645833333334  C 17.536737351190478 4.745659722222221  17.220796130952383 4.666666666666666  16.868861607142858 4.666666666666666  C 16.516927083333336 4.666666666666666  16.20498511904762 4.748697916666666  15.933035714285715 4.912760416666666  C 15.661086309523812 5.076822916666666  15.485119047619047 5.286458333333334  15.405133928571427 5.541666666666666  L 12.621651785714285 14  L 2.4715401785714284 14  C 0.823846726190476 12.116319444444441  0 10.293402777777775  0 8.53125  C 0 5.8576388888888875  1.0158110119047616 3.7673611111111094  3.0474330357142856 2.2604166666666656  C 5.07905505952381 0.7534722222222219  7.886532738095237 0  11.469866071428573 0  C 12.461681547619047 0  13.473493303571427 0.13064236111110938  14.505301339285715 0.39192708333333437  C 15.537109375 0.6532118055555531  16.496930803571427 1.0056423611111094  17.384765625 1.44921875  C 18.272600446428577 1.8927951388888875  19.036458333333336 2.309027777777775  19.676339285714285 2.6979166666666656  C 20.31622023809524 3.086805555555553  20.924107142857142 3.5  21.5 3.9375  C 22.075892857142854 3.5  22.683779761904766 3.086805555555553  23.323660714285715 2.6979166666666656  C 23.96354166666667 2.309027777777775  24.72739955357143 1.8927951388888875  25.615234375 1.44921875  C 26.50306919642857 1.0056423611111094  27.462890625 0.6532118055555531  28.494698660714285 0.39192708333333437  C 29.52650669642857 0.13064236111110938  30.538318452380956 0  31.53013392857143 0  C 35.113467261904766 0  37.9209449404762 0.7534722222222219  39.952566964285715 2.2604166666666656  Z " stroke-width="0" stroke-dasharray="0" stroke="rgba(255, 255, 255, 0)" fill="none" transform="matrix(1 0 0 1 12 176 )" class="stroke" mask="url(#Clip240)" />
  </g>
</svg>