<?xml version="1.0" encoding="utf-8"?>
<svg version="1.1" xmlns:xlink="http://www.w3.org/1999/xlink" width="41px" height="40px" xmlns="http://www.w3.org/2000/svg">
  <defs>
    <pattern id="BGPattern" patternUnits="userSpaceOnUse" alignment="0 0" imageRepeat="None" />
    <mask fill="white" id="Clip241">
      <path d="M 22.1015625 37.64204545454545  C 22.55237268518519 37.28219696969697  22.77777777777778 36.85606060606061  22.77777777777778 36.36363636363636  C 22.77777777777778 35.871212121212125  22.55237268518519 35.445075757575765  22.1015625 35.08522727272727  C 21.650752314814817 34.72537878787878  21.11689814814815 34.54545454545455  20.5 34.54545454545455  C 19.883101851851855 34.54545454545455  19.34924768518519 34.72537878787878  18.8984375 35.08522727272727  C 18.447627314814817 35.445075757575765  18.22222222222222 35.871212121212125  18.22222222222222 36.36363636363636  C 18.22222222222222 36.85606060606061  18.447627314814817 37.28219696969697  18.8984375 37.64204545454545  C 19.34924768518519 38.00189393939394  19.883101851851855 38.18181818181819  20.5 38.18181818181819  C 21.11689814814815 38.18181818181819  21.650752314814817 38.00189393939394  22.1015625 37.64204545454545  Z M 36.10633680555556 32.45738636363636  C 36.331741898148145 32.27746212121212  36.44444444444444 32.06439393939394  36 31.818181818181817  L 36 4.545454545454546  C 36.44444444444444 4.299242424242422  36.331741898148145 4.086174242424239  36.10633680555556 3.90625  C 35.88093171296297 3.7263257575757525  35.61400462962963 3.6363636363636376  35.30555555555556 4  L 5.694444444444445 4  C 5.385995370370371 3.6363636363636376  5.119068287037037 3.7263257575757525  4.893663194444445 3.90625  C 4.668258101851853 4.086174242424239  4.555555555555555 4.299242424242422  5 4.545454545454546  L 5 31.818181818181817  C 4.555555555555555 32.06439393939394  4.668258101851853 32.27746212121212  4.893663194444445 32.45738636363636  C 5.119068287037037 32.63731060606061  5.385995370370371 32.72727272727273  5.694444444444445 32  L 35.30555555555556 32  C 35.61400462962963 32.72727272727273  35.88093171296297 32.63731060606061  36.10633680555556 32.45738636363636  Z M 39.32725694444444 1.3352272727272707  C 40.44241898148149 2.2253787878787845  41 3.295454545454546  41 4.545454545454546  L 41 35.45454545454545  C 41 36.70454545454545  40.44241898148149 37.77462121212122  39.32725694444444 38.66477272727273  C 38.21209490740741 39.554924242424235  36.87152777777778 40  35.30555555555556 40  L 5.694444444444445 40  C 4.128472222222222 40  2.7879050925925926 39.554924242424235  1.6727430555555556 38.66477272727273  C 0.5575810185185185 37.77462121212122  0 36.70454545454545  0 35.45454545454545  L 0 4.545454545454546  C 0 3.295454545454546  0.5575810185185185 2.2253787878787845  1.6727430555555556 1.3352272727272707  C 2.7879050925925926 0.44507575757575246  4.128472222222222 0  5.694444444444445 0  L 35.30555555555556 0  C 36.87152777777778 0  38.21209490740741 0.44507575757575246  39.32725694444444 1.3352272727272707  Z " fill-rule="evenodd" />
    </mask>
  </defs>
  <g transform="matrix(1 0 0 1 -12 -230 )">
    <path d="M 22.1015625 37.64204545454545  C 22.55237268518519 37.28219696969697  22.77777777777778 36.85606060606061  22.77777777777778 36.36363636363636  C 22.77777777777778 35.871212121212125  22.55237268518519 35.445075757575765  22.1015625 35.08522727272727  C 21.650752314814817 34.72537878787878  21.11689814814815 34.54545454545455  20.5 34.54545454545455  C 19.883101851851855 34.54545454545455  19.34924768518519 34.72537878787878  18.8984375 35.08522727272727  C 18.447627314814817 35.445075757575765  18.22222222222222 35.871212121212125  18.22222222222222 36.36363636363636  C 18.22222222222222 36.85606060606061  18.447627314814817 37.28219696969697  18.8984375 37.64204545454545  C 19.34924768518519 38.00189393939394  19.883101851851855 38.18181818181819  20.5 38.18181818181819  C 21.11689814814815 38.18181818181819  21.650752314814817 38.00189393939394  22.1015625 37.64204545454545  Z M 36.10633680555556 32.45738636363636  C 36.331741898148145 32.27746212121212  36.44444444444444 32.06439393939394  36 31.818181818181817  L 36 4.545454545454546  C 36.44444444444444 4.299242424242422  36.331741898148145 4.086174242424239  36.10633680555556 3.90625  C 35.88093171296297 3.7263257575757525  35.61400462962963 3.6363636363636376  35.30555555555556 4  L 5.694444444444445 4  C 5.385995370370371 3.6363636363636376  5.119068287037037 3.7263257575757525  4.893663194444445 3.90625  C 4.668258101851853 4.086174242424239  4.555555555555555 4.299242424242422  5 4.545454545454546  L 5 31.818181818181817  C 4.555555555555555 32.06439393939394  4.668258101851853 32.27746212121212  4.893663194444445 32.45738636363636  C 5.119068287037037 32.63731060606061  5.385995370370371 32.72727272727273  5.694444444444445 32  L 35.30555555555556 32  C 35.61400462962963 32.72727272727273  35.88093171296297 32.63731060606061  36.10633680555556 32.45738636363636  Z M 39.32725694444444 1.3352272727272707  C 40.44241898148149 2.2253787878787845  41 3.295454545454546  41 4.545454545454546  L 41 35.45454545454545  C 41 36.70454545454545  40.44241898148149 37.77462121212122  39.32725694444444 38.66477272727273  C 38.21209490740741 39.554924242424235  36.87152777777778 40  35.30555555555556 40  L 5.694444444444445 40  C 4.128472222222222 40  2.7879050925925926 39.554924242424235  1.6727430555555556 38.66477272727273  C 0.5575810185185185 37.77462121212122  0 36.70454545454545  0 35.45454545454545  L 0 4.545454545454546  C 0 3.295454545454546  0.5575810185185185 2.2253787878787845  1.6727430555555556 1.3352272727272707  C 2.7879050925925926 0.44507575757575246  4.128472222222222 0  5.694444444444445 0  L 35.30555555555556 0  C 36.87152777777778 0  38.21209490740741 0.44507575757575246  39.32725694444444 1.3352272727272707  Z " fill-rule="nonzero" fill="rgba(127, 127, 127, 1)" stroke="none" transform="matrix(1 0 0 1 12 230 )" class="fill" />
    <path d="M 22.1015625 37.64204545454545  C 22.55237268518519 37.28219696969697  22.77777777777778 36.85606060606061  22.77777777777778 36.36363636363636  C 22.77777777777778 35.871212121212125  22.55237268518519 35.445075757575765  22.1015625 35.08522727272727  C 21.650752314814817 34.72537878787878  21.11689814814815 34.54545454545455  20.5 34.54545454545455  C 19.883101851851855 34.54545454545455  19.34924768518519 34.72537878787878  18.8984375 35.08522727272727  C 18.447627314814817 35.445075757575765  18.22222222222222 35.871212121212125  18.22222222222222 36.36363636363636  C 18.22222222222222 36.85606060606061  18.447627314814817 37.28219696969697  18.8984375 37.64204545454545  C 19.34924768518519 38.00189393939394  19.883101851851855 38.18181818181819  20.5 38.18181818181819  C 21.11689814814815 38.18181818181819  21.650752314814817 38.00189393939394  22.1015625 37.64204545454545  Z " stroke-width="0" stroke-dasharray="0" stroke="rgba(255, 255, 255, 0)" fill="none" transform="matrix(1 0 0 1 12 230 )" class="stroke" mask="url(#Clip241)" />
    <path d="M 36.10633680555556 32.45738636363636  C 36.331741898148145 32.27746212121212  36.44444444444444 32.06439393939394  36 31.818181818181817  L 36 4.545454545454546  C 36.44444444444444 4.299242424242422  36.331741898148145 4.086174242424239  36.10633680555556 3.90625  C 35.88093171296297 3.7263257575757525  35.61400462962963 3.6363636363636376  35.30555555555556 4  L 5.694444444444445 4  C 5.385995370370371 3.6363636363636376  5.119068287037037 3.7263257575757525  4.893663194444445 3.90625  C 4.668258101851853 4.086174242424239  4.555555555555555 4.299242424242422  5 4.545454545454546  L 5 31.818181818181817  C 4.555555555555555 32.06439393939394  4.668258101851853 32.27746212121212  4.893663194444445 32.45738636363636  C 5.119068287037037 32.63731060606061  5.385995370370371 32.72727272727273  5.694444444444445 32  L 35.30555555555556 32  C 35.61400462962963 32.72727272727273  35.88093171296297 32.63731060606061  36.10633680555556 32.45738636363636  Z " stroke-width="0" stroke-dasharray="0" stroke="rgba(255, 255, 255, 0)" fill="none" transform="matrix(1 0 0 1 12 230 )" class="stroke" mask="url(#Clip241)" />
    <path d="M 39.32725694444444 1.3352272727272707  C 40.44241898148149 2.2253787878787845  41 3.295454545454546  41 4.545454545454546  L 41 35.45454545454545  C 41 36.70454545454545  40.44241898148149 37.77462121212122  39.32725694444444 38.66477272727273  C 38.21209490740741 39.554924242424235  36.87152777777778 40  35.30555555555556 40  L 5.694444444444445 40  C 4.128472222222222 40  2.7879050925925926 39.554924242424235  1.6727430555555556 38.66477272727273  C 0.5575810185185185 37.77462121212122  0 36.70454545454545  0 35.45454545454545  L 0 4.545454545454546  C 0 3.295454545454546  0.5575810185185185 2.2253787878787845  1.6727430555555556 1.3352272727272707  C 2.7879050925925926 0.44507575757575246  4.128472222222222 0  5.694444444444445 0  L 35.30555555555556 0  C 36.87152777777778 0  38.21209490740741 0.44507575757575246  39.32725694444444 1.3352272727272707  Z " stroke-width="0" stroke-dasharray="0" stroke="rgba(255, 255, 255, 0)" fill="none" transform="matrix(1 0 0 1 12 230 )" class="stroke" mask="url(#Clip241)" />
  </g>
</svg>