<?xml version="1.0" encoding="utf-8"?>
<svg version="1.1" xmlns:xlink="http://www.w3.org/1999/xlink" width="40px" height="40px" xmlns="http://www.w3.org/2000/svg">
  <defs>
    <pattern id="BGPattern" patternUnits="userSpaceOnUse" alignment="0 0" imageRepeat="None" />
    <mask fill="white" id="Clip242">
      <path d="M 16.049107142857142 25.71428571428571  L 13.59375 18.214285714285715  L 20 13.571428571428573  L 26.40625 18.214285714285715  L 23.973214285714285 25.71428571428571  L 16.049107142857142 25.71428571428571  Z M 12.232142857142858 1.584821428571428  C 14.702380952380953 0.5282738095238093  17.291666666666668 0  20 0  C 22.708333333333336 0  25.29761904761905 0.5282738095238093  27.767857142857146 1.584821428571428  C 30.23809523809524 2.6413690476190466  32.36607142857143 4.0625  34.151785714285715 5.848214285714284  C 35.93750000000001 7.633928571428572  37.358630952380956 9.76190476190476  38.41517857142857 12.232142857142856  C 39.4717261904762 14.702380952380949  40 17.291666666666664  40 20  C 40 22.70833333333333  39.4717261904762 25.297619047619047  38.41517857142857 27.767857142857146  C 37.358630952380956 30.238095238095237  35.93750000000001 32.36607142857143  34.151785714285715 34.15178571428571  C 32.36607142857143 35.9375  30.23809523809524 37.358630952380956  27.767857142857146 38.41517857142857  C 25.29761904761905 39.47172619047619  22.708333333333336 40  20 40  C 17.291666666666668 40  14.702380952380953 39.47172619047619  12.232142857142858 38.41517857142857  C 9.761904761904763 37.358630952380956  7.633928571428571 35.9375  5.8482142857142865 34.15178571428571  C 4.0625 32.36607142857143  2.6413690476190474 30.238095238095237  1.5848214285714284 27.767857142857146  C 0.5282738095238094 25.297619047619047  0 22.70833333333333  0 20  C 0 17.291666666666664  0.5282738095238094 14.702380952380949  1.5848214285714284 12.232142857142856  C 2.6413690476190474 9.76190476190476  4.0625 7.633928571428572  5.8482142857142865 5.848214285714284  C 7.633928571428571 4.0625  9.761904761904763 2.6413690476190466  12.232142857142858 1.584821428571428  Z M 33.14732142857143 27.1875  L 33.816964285714285 30.133928571428573  C 36.0342261904762 27.113095238095237  37.142857142857146 23.735119047619047  37.142857142857146 20  L 37.142857142857146 19.933035714285715  L 34.86607142857143 21.919642857142854  L 29.508928571428573 16.919642857142854  L 30.915178571428573 9.709821428571427  L 33.90625 9.977678571428573  C 31.674107142857146 6.912202380952377  28.779761904761905 4.813988095238093  25.223214285714285 3.683035714285716  L 26.40625 6.450892857142856  L 20 10  L 13.59375 6.450892857142856  L 14.776785714285714 3.683035714285716  C 11.220238095238098 4.813988095238093  8.325892857142858 6.912202380952377  6.09375 9.977678571428573  L 9.107142857142858 9.709821428571427  L 10.491071428571427 16.919642857142854  L 5.133928571428571 21.919642857142854  L 2.8571428571428568 19.933035714285715  L 2.8571428571428568 20  C 2.8571428571428568 23.735119047619047  3.9657738095238098 27.113095238095237  6.1830357142857135 30.133928571428573  L 6.852678571428571 27.1875  L 14.129464285714286 28.080357142857146  L 17.232142857142858 34.732142857142854  L 14.642857142857142 36.27232142857143  C 16.383928571428573 36.85267857142857  18.169642857142858 37.142857142857146  20 37.142857142857146  C 21.830357142857146 37.142857142857146  23.616071428571427 36.85267857142857  25.357142857142854 36.27232142857143  L 22.767857142857146 34.732142857142854  L 25.870535714285715 28.080357142857146  L 33.14732142857143 27.1875  Z " fill-rule="evenodd" />
    </mask>
  </defs>
  <g transform="matrix(1 0 0 1 -12 -291 )">
    <path d="M 16.049107142857142 25.71428571428571  L 13.59375 18.214285714285715  L 20 13.571428571428573  L 26.40625 18.214285714285715  L 23.973214285714285 25.71428571428571  L 16.049107142857142 25.71428571428571  Z M 12.232142857142858 1.584821428571428  C 14.702380952380953 0.5282738095238093  17.291666666666668 0  20 0  C 22.708333333333336 0  25.29761904761905 0.5282738095238093  27.767857142857146 1.584821428571428  C 30.23809523809524 2.6413690476190466  32.36607142857143 4.0625  34.151785714285715 5.848214285714284  C 35.93750000000001 7.633928571428572  37.358630952380956 9.76190476190476  38.41517857142857 12.232142857142856  C 39.4717261904762 14.702380952380949  40 17.291666666666664  40 20  C 40 22.70833333333333  39.4717261904762 25.297619047619047  38.41517857142857 27.767857142857146  C 37.358630952380956 30.238095238095237  35.93750000000001 32.36607142857143  34.151785714285715 34.15178571428571  C 32.36607142857143 35.9375  30.23809523809524 37.358630952380956  27.767857142857146 38.41517857142857  C 25.29761904761905 39.47172619047619  22.708333333333336 40  20 40  C 17.291666666666668 40  14.702380952380953 39.47172619047619  12.232142857142858 38.41517857142857  C 9.761904761904763 37.358630952380956  7.633928571428571 35.9375  5.8482142857142865 34.15178571428571  C 4.0625 32.36607142857143  2.6413690476190474 30.238095238095237  1.5848214285714284 27.767857142857146  C 0.5282738095238094 25.297619047619047  0 22.70833333333333  0 20  C 0 17.291666666666664  0.5282738095238094 14.702380952380949  1.5848214285714284 12.232142857142856  C 2.6413690476190474 9.76190476190476  4.0625 7.633928571428572  5.8482142857142865 5.848214285714284  C 7.633928571428571 4.0625  9.761904761904763 2.6413690476190466  12.232142857142858 1.584821428571428  Z M 33.14732142857143 27.1875  L 33.816964285714285 30.133928571428573  C 36.0342261904762 27.113095238095237  37.142857142857146 23.735119047619047  37.142857142857146 20  L 37.142857142857146 19.933035714285715  L 34.86607142857143 21.919642857142854  L 29.508928571428573 16.919642857142854  L 30.915178571428573 9.709821428571427  L 33.90625 9.977678571428573  C 31.674107142857146 6.912202380952377  28.779761904761905 4.813988095238093  25.223214285714285 3.683035714285716  L 26.40625 6.450892857142856  L 20 10  L 13.59375 6.450892857142856  L 14.776785714285714 3.683035714285716  C 11.220238095238098 4.813988095238093  8.325892857142858 6.912202380952377  6.09375 9.977678571428573  L 9.107142857142858 9.709821428571427  L 10.491071428571427 16.919642857142854  L 5.133928571428571 21.919642857142854  L 2.8571428571428568 19.933035714285715  L 2.8571428571428568 20  C 2.8571428571428568 23.735119047619047  3.9657738095238098 27.113095238095237  6.1830357142857135 30.133928571428573  L 6.852678571428571 27.1875  L 14.129464285714286 28.080357142857146  L 17.232142857142858 34.732142857142854  L 14.642857142857142 36.27232142857143  C 16.383928571428573 36.85267857142857  18.169642857142858 37.142857142857146  20 37.142857142857146  C 21.830357142857146 37.142857142857146  23.616071428571427 36.85267857142857  25.357142857142854 36.27232142857143  L 22.767857142857146 34.732142857142854  L 25.870535714285715 28.080357142857146  L 33.14732142857143 27.1875  Z " fill-rule="nonzero" fill="rgba(127, 127, 127, 1)" stroke="none" transform="matrix(1 0 0 1 12 291 )" class="fill" />
    <path d="M 16.049107142857142 25.71428571428571  L 13.59375 18.214285714285715  L 20 13.571428571428573  L 26.40625 18.214285714285715  L 23.973214285714285 25.71428571428571  L 16.049107142857142 25.71428571428571  Z " stroke-width="0" stroke-dasharray="0" stroke="rgba(255, 255, 255, 0)" fill="none" transform="matrix(1 0 0 1 12 291 )" class="stroke" mask="url(#Clip242)" />
    <path d="M 12.232142857142858 1.584821428571428  C 14.702380952380953 0.5282738095238093  17.291666666666668 0  20 0  C 22.708333333333336 0  25.29761904761905 0.5282738095238093  27.767857142857146 1.584821428571428  C 30.23809523809524 2.6413690476190466  32.36607142857143 4.0625  34.151785714285715 5.848214285714284  C 35.93750000000001 7.633928571428572  37.358630952380956 9.76190476190476  38.41517857142857 12.232142857142856  C 39.4717261904762 14.702380952380949  40 17.291666666666664  40 20  C 40 22.70833333333333  39.4717261904762 25.297619047619047  38.41517857142857 27.767857142857146  C 37.358630952380956 30.238095238095237  35.93750000000001 32.36607142857143  34.151785714285715 34.15178571428571  C 32.36607142857143 35.9375  30.23809523809524 37.358630952380956  27.767857142857146 38.41517857142857  C 25.29761904761905 39.47172619047619  22.708333333333336 40  20 40  C 17.291666666666668 40  14.702380952380953 39.47172619047619  12.232142857142858 38.41517857142857  C 9.761904761904763 37.358630952380956  7.633928571428571 35.9375  5.8482142857142865 34.15178571428571  C 4.0625 32.36607142857143  2.6413690476190474 30.238095238095237  1.5848214285714284 27.767857142857146  C 0.5282738095238094 25.297619047619047  0 22.70833333333333  0 20  C 0 17.291666666666664  0.5282738095238094 14.702380952380949  1.5848214285714284 12.232142857142856  C 2.6413690476190474 9.76190476190476  4.0625 7.633928571428572  5.8482142857142865 5.848214285714284  C 7.633928571428571 4.0625  9.761904761904763 2.6413690476190466  12.232142857142858 1.584821428571428  Z " stroke-width="0" stroke-dasharray="0" stroke="rgba(255, 255, 255, 0)" fill="none" transform="matrix(1 0 0 1 12 291 )" class="stroke" mask="url(#Clip242)" />
    <path d="M 33.14732142857143 27.1875  L 33.816964285714285 30.133928571428573  C 36.0342261904762 27.113095238095237  37.142857142857146 23.735119047619047  37.142857142857146 20  L 37.142857142857146 19.933035714285715  L 34.86607142857143 21.919642857142854  L 29.508928571428573 16.919642857142854  L 30.915178571428573 9.709821428571427  L 33.90625 9.977678571428573  C 31.674107142857146 6.912202380952377  28.779761904761905 4.813988095238093  25.223214285714285 3.683035714285716  L 26.40625 6.450892857142856  L 20 10  L 13.59375 6.450892857142856  L 14.776785714285714 3.683035714285716  C 11.220238095238098 4.813988095238093  8.325892857142858 6.912202380952377  6.09375 9.977678571428573  L 9.107142857142858 9.709821428571427  L 10.491071428571427 16.919642857142854  L 5.133928571428571 21.919642857142854  L 2.8571428571428568 19.933035714285715  L 2.8571428571428568 20  C 2.8571428571428568 23.735119047619047  3.9657738095238098 27.113095238095237  6.1830357142857135 30.133928571428573  L 6.852678571428571 27.1875  L 14.129464285714286 28.080357142857146  L 17.232142857142858 34.732142857142854  L 14.642857142857142 36.27232142857143  C 16.383928571428573 36.85267857142857  18.169642857142858 37.142857142857146  20 37.142857142857146  C 21.830357142857146 37.142857142857146  23.616071428571427 36.85267857142857  25.357142857142854 36.27232142857143  L 22.767857142857146 34.732142857142854  L 25.870535714285715 28.080357142857146  L 33.14732142857143 27.1875  Z " stroke-width="0" stroke-dasharray="0" stroke="rgba(255, 255, 255, 0)" fill="none" transform="matrix(1 0 0 1 12 291 )" class="stroke" mask="url(#Clip242)" />
  </g>
</svg>