<?xml version="1.0" encoding="utf-8"?>
<svg version="1.1" xmlns:xlink="http://www.w3.org/1999/xlink" width="30px" height="40px" xmlns="http://www.w3.org/2000/svg">
  <defs>
    <pattern id="BGPattern" patternUnits="userSpaceOnUse" alignment="0 0" imageRepeat="None" />
    <mask fill="white" id="Clip243">
      <path d="M 13.23153409090909 0.4241071428571441  C 13.501420454545457 0.7068452380952328  13.636363636363637 1.0416666666666652  14 1.428571428571428  L 14 15.714285714285715  C 13.636363636363637 16.622023809523803  13.384232954545457 17.447916666666664  12.87997159090909 18.191964285714285  C 12.375710227272728 18.9360119047619  11.71875 19.456845238095237  11 19.754464285714285  L 11 37.142857142857146  C 10.90909090909091 37.91666666666667  10.639204545454547 38.586309523809526  10.099431818181818 39.151785714285715  C 9.559659090909092 39.717261904761905  8.920454545454547 40  8.181818181818182 40  L 5.454545454545455 40  C 4.715909090909092 40  4.076704545454547 39.717261904761905  3.5369318181818183 39.151785714285715  C 2.9971590909090913 38.586309523809526  2.7272727272727275 37.91666666666667  3 37.142857142857146  L 3 19.754464285714285  C 1.9176136363636362 19.456845238095237  1.2606534090909092 18.9360119047619  0.7563920454545454 18.191964285714285  C 0.2521306818181818 17.447916666666664  0 16.622023809523803  0 15.714285714285715  L 0 1.428571428571428  C 0 1.0416666666666652  0.1349431818181818 0.7068452380952328  0.40482954545454547 0.4241071428571441  C 0.6747159090909092 0.141369047619051  0.994318181818182 0  1.3636363636363638 0  C 1.7329545454545456 0  2.0525568181818183 0.141369047619051  2.3224431818181817 0.4241071428571441  C 2.5923295454545454 0.7068452380952328  2.7272727272727275 1.0416666666666652  2.7272727272727275 1.428571428571428  L 2.7272727272727275 10.714285714285715  C 2.7272727272727275 11.101190476190474  2.862215909090909 11.436011904761902  3.1321022727272725 11.71875  C 3.4019886363636367 12.001488095238093  3.7215909090909096 12.142857142857144  4.090909090909091 12.142857142857144  C 4.460227272727273 12.142857142857144  4.779829545454546 12.001488095238093  5.049715909090909 11.71875  C 5.319602272727273 11.436011904761902  5.454545454545455 11.101190476190474  5.454545454545455 10.714285714285715  L 5.454545454545455 1.428571428571428  C 5.454545454545455 1.0416666666666652  5.589488636363637 0.7068452380952328  5.859375 0.4241071428571441  C 6.129261363636364 0.141369047619051  6.448863636363637 0  6.818181818181818 0  C 7.187500000000001 0  7.507102272727273 0.141369047619051  7.776988636363636 0.4241071428571441  C 8.046874999999998 0.7068452380952328  8.181818181818182 1.0416666666666652  8.181818181818182 1.428571428571428  L 8.181818181818182 10.714285714285715  C 8.181818181818182 11.101190476190474  8.316761363636363 11.436011904761902  8.586647727272727 11.71875  C 8.856534090909092 12.001488095238093  9.176136363636365 12.142857142857144  9.545454545454545 12.142857142857144  C 9.914772727272728 12.142857142857144  10.234375000000002 12.001488095238093  10.504261363636363 11.71875  C 10.774147727272727 11.436011904761902  10.90909090909091 11.101190476190474  10.90909090909091 10.714285714285715  L 10.90909090909091 1.428571428571428  C 10.90909090909091 1.0416666666666652  11.044034090909092 0.7068452380952328  11.313920454545455 0.4241071428571441  C 11.58380681818182 0.141369047619051  11.903409090909093 0  12.272727272727273 0  C 12.642045454545455 0  12.961647727272728 0.141369047619051  13.23153409090909 0.4241071428571441  Z M 29.595170454545453 0.4241071428571441  C 29.86505681818182 0.7068452380952328  30 1.0416666666666652  30 1.428571428571428  L 30 37.142857142857146  C 30 37.91666666666667  29.73011363636364 38.586309523809526  29.19034090909091 39.151785714285715  C 28.650568181818183 39.717261904761905  28.011363636363637 40  27.272727272727273 40  L 24.545454545454547 40  C 23.806818181818187 40  23.16761363636364 39.717261904761905  22.62784090909091 39.151785714285715  C 22.088068181818183 38.586309523809526  21.81818181818182 37.91666666666667  21.81818181818182 37.142857142857146  L 21.81818181818182 25.71428571428571  L 17.045454545454547 25.71428571428571  C 16.860795454545453 25.71428571428571  16.70099431818182 25.643601190476197  16.566051136363637 25.502232142857146  C 16.431107954545457 25.360863095238095  16.363636363636363 25.193452380952376  16 25  L 16 7.142857142857144  C 16.363636363636363 5.178571428571428  17.031249999999996 3.497023809523805  18.366477272727273 2.098214285714284  C 19.701704545454547 0.6994047619047672  21.30681818181818 0  23.18181818181818 0  L 28.636363636363637 0  C 29.00568181818182 0  29.325284090909093 0.141369047619051  29.595170454545453 0.4241071428571441  Z " fill-rule="evenodd" />
    </mask>
  </defs>
  <g transform="matrix(1 0 0 1 -13 -350 )">
    <path d="M 13.23153409090909 0.4241071428571441  C 13.501420454545457 0.7068452380952328  13.636363636363637 1.0416666666666652  14 1.428571428571428  L 14 15.714285714285715  C 13.636363636363637 16.622023809523803  13.384232954545457 17.447916666666664  12.87997159090909 18.191964285714285  C 12.375710227272728 18.9360119047619  11.71875 19.456845238095237  11 19.754464285714285  L 11 37.142857142857146  C 10.90909090909091 37.91666666666667  10.639204545454547 38.586309523809526  10.099431818181818 39.151785714285715  C 9.559659090909092 39.717261904761905  8.920454545454547 40  8.181818181818182 40  L 5.454545454545455 40  C 4.715909090909092 40  4.076704545454547 39.717261904761905  3.5369318181818183 39.151785714285715  C 2.9971590909090913 38.586309523809526  2.7272727272727275 37.91666666666667  3 37.142857142857146  L 3 19.754464285714285  C 1.9176136363636362 19.456845238095237  1.2606534090909092 18.9360119047619  0.7563920454545454 18.191964285714285  C 0.2521306818181818 17.447916666666664  0 16.622023809523803  0 15.714285714285715  L 0 1.428571428571428  C 0 1.0416666666666652  0.1349431818181818 0.7068452380952328  0.40482954545454547 0.4241071428571441  C 0.6747159090909092 0.141369047619051  0.994318181818182 0  1.3636363636363638 0  C 1.7329545454545456 0  2.0525568181818183 0.141369047619051  2.3224431818181817 0.4241071428571441  C 2.5923295454545454 0.7068452380952328  2.7272727272727275 1.0416666666666652  2.7272727272727275 1.428571428571428  L 2.7272727272727275 10.714285714285715  C 2.7272727272727275 11.101190476190474  2.862215909090909 11.436011904761902  3.1321022727272725 11.71875  C 3.4019886363636367 12.001488095238093  3.7215909090909096 12.142857142857144  4.090909090909091 12.142857142857144  C 4.460227272727273 12.142857142857144  4.779829545454546 12.001488095238093  5.049715909090909 11.71875  C 5.319602272727273 11.436011904761902  5.454545454545455 11.101190476190474  5.454545454545455 10.714285714285715  L 5.454545454545455 1.428571428571428  C 5.454545454545455 1.0416666666666652  5.589488636363637 0.7068452380952328  5.859375 0.4241071428571441  C 6.129261363636364 0.141369047619051  6.448863636363637 0  6.818181818181818 0  C 7.187500000000001 0  7.507102272727273 0.141369047619051  7.776988636363636 0.4241071428571441  C 8.046874999999998 0.7068452380952328  8.181818181818182 1.0416666666666652  8.181818181818182 1.428571428571428  L 8.181818181818182 10.714285714285715  C 8.181818181818182 11.101190476190474  8.316761363636363 11.436011904761902  8.586647727272727 11.71875  C 8.856534090909092 12.001488095238093  9.176136363636365 12.142857142857144  9.545454545454545 12.142857142857144  C 9.914772727272728 12.142857142857144  10.234375000000002 12.001488095238093  10.504261363636363 11.71875  C 10.774147727272727 11.436011904761902  10.90909090909091 11.101190476190474  10.90909090909091 10.714285714285715  L 10.90909090909091 1.428571428571428  C 10.90909090909091 1.0416666666666652  11.044034090909092 0.7068452380952328  11.313920454545455 0.4241071428571441  C 11.58380681818182 0.141369047619051  11.903409090909093 0  12.272727272727273 0  C 12.642045454545455 0  12.961647727272728 0.141369047619051  13.23153409090909 0.4241071428571441  Z M 29.595170454545453 0.4241071428571441  C 29.86505681818182 0.7068452380952328  30 1.0416666666666652  30 1.428571428571428  L 30 37.142857142857146  C 30 37.91666666666667  29.73011363636364 38.586309523809526  29.19034090909091 39.151785714285715  C 28.650568181818183 39.717261904761905  28.011363636363637 40  27.272727272727273 40  L 24.545454545454547 40  C 23.806818181818187 40  23.16761363636364 39.717261904761905  22.62784090909091 39.151785714285715  C 22.088068181818183 38.586309523809526  21.81818181818182 37.91666666666667  21.81818181818182 37.142857142857146  L 21.81818181818182 25.71428571428571  L 17.045454545454547 25.71428571428571  C 16.860795454545453 25.71428571428571  16.70099431818182 25.643601190476197  16.566051136363637 25.502232142857146  C 16.431107954545457 25.360863095238095  16.363636363636363 25.193452380952376  16 25  L 16 7.142857142857144  C 16.363636363636363 5.178571428571428  17.031249999999996 3.497023809523805  18.366477272727273 2.098214285714284  C 19.701704545454547 0.6994047619047672  21.30681818181818 0  23.18181818181818 0  L 28.636363636363637 0  C 29.00568181818182 0  29.325284090909093 0.141369047619051  29.595170454545453 0.4241071428571441  Z " fill-rule="nonzero" fill="rgba(127, 127, 127, 1)" stroke="none" transform="matrix(1 0 0 1 13 350 )" class="fill" />
    <path d="M 13.23153409090909 0.4241071428571441  C 13.501420454545457 0.7068452380952328  13.636363636363637 1.0416666666666652  14 1.428571428571428  L 14 15.714285714285715  C 13.636363636363637 16.622023809523803  13.384232954545457 17.447916666666664  12.87997159090909 18.191964285714285  C 12.375710227272728 18.9360119047619  11.71875 19.456845238095237  11 19.754464285714285  L 11 37.142857142857146  C 10.90909090909091 37.91666666666667  10.639204545454547 38.586309523809526  10.099431818181818 39.151785714285715  C 9.559659090909092 39.717261904761905  8.920454545454547 40  8.181818181818182 40  L 5.454545454545455 40  C 4.715909090909092 40  4.076704545454547 39.717261904761905  3.5369318181818183 39.151785714285715  C 2.9971590909090913 38.586309523809526  2.7272727272727275 37.91666666666667  3 37.142857142857146  L 3 19.754464285714285  C 1.9176136363636362 19.456845238095237  1.2606534090909092 18.9360119047619  0.7563920454545454 18.191964285714285  C 0.2521306818181818 17.447916666666664  0 16.622023809523803  0 15.714285714285715  L 0 1.428571428571428  C 0 1.0416666666666652  0.1349431818181818 0.7068452380952328  0.40482954545454547 0.4241071428571441  C 0.6747159090909092 0.141369047619051  0.994318181818182 0  1.3636363636363638 0  C 1.7329545454545456 0  2.0525568181818183 0.141369047619051  2.3224431818181817 0.4241071428571441  C 2.5923295454545454 0.7068452380952328  2.7272727272727275 1.0416666666666652  2.7272727272727275 1.428571428571428  L 2.7272727272727275 10.714285714285715  C 2.7272727272727275 11.101190476190474  2.862215909090909 11.436011904761902  3.1321022727272725 11.71875  C 3.4019886363636367 12.001488095238093  3.7215909090909096 12.142857142857144  4.090909090909091 12.142857142857144  C 4.460227272727273 12.142857142857144  4.779829545454546 12.001488095238093  5.049715909090909 11.71875  C 5.319602272727273 11.436011904761902  5.454545454545455 11.101190476190474  5.454545454545455 10.714285714285715  L 5.454545454545455 1.428571428571428  C 5.454545454545455 1.0416666666666652  5.589488636363637 0.7068452380952328  5.859375 0.4241071428571441  C 6.129261363636364 0.141369047619051  6.448863636363637 0  6.818181818181818 0  C 7.187500000000001 0  7.507102272727273 0.141369047619051  7.776988636363636 0.4241071428571441  C 8.046874999999998 0.7068452380952328  8.181818181818182 1.0416666666666652  8.181818181818182 1.428571428571428  L 8.181818181818182 10.714285714285715  C 8.181818181818182 11.101190476190474  8.316761363636363 11.436011904761902  8.586647727272727 11.71875  C 8.856534090909092 12.001488095238093  9.176136363636365 12.142857142857144  9.545454545454545 12.142857142857144  C 9.914772727272728 12.142857142857144  10.234375000000002 12.001488095238093  10.504261363636363 11.71875  C 10.774147727272727 11.436011904761902  10.90909090909091 11.101190476190474  10.90909090909091 10.714285714285715  L 10.90909090909091 1.428571428571428  C 10.90909090909091 1.0416666666666652  11.044034090909092 0.7068452380952328  11.313920454545455 0.4241071428571441  C 11.58380681818182 0.141369047619051  11.903409090909093 0  12.272727272727273 0  C 12.642045454545455 0  12.961647727272728 0.141369047619051  13.23153409090909 0.4241071428571441  Z " stroke-width="0" stroke-dasharray="0" stroke="rgba(255, 255, 255, 0)" fill="none" transform="matrix(1 0 0 1 13 350 )" class="stroke" mask="url(#Clip243)" />
    <path d="M 29.595170454545453 0.4241071428571441  C 29.86505681818182 0.7068452380952328  30 1.0416666666666652  30 1.428571428571428  L 30 37.142857142857146  C 30 37.91666666666667  29.73011363636364 38.586309523809526  29.19034090909091 39.151785714285715  C 28.650568181818183 39.717261904761905  28.011363636363637 40  27.272727272727273 40  L 24.545454545454547 40  C 23.806818181818187 40  23.16761363636364 39.717261904761905  22.62784090909091 39.151785714285715  C 22.088068181818183 38.586309523809526  21.81818181818182 37.91666666666667  21.81818181818182 37.142857142857146  L 21.81818181818182 25.71428571428571  L 17.045454545454547 25.71428571428571  C 16.860795454545453 25.71428571428571  16.70099431818182 25.643601190476197  16.566051136363637 25.502232142857146  C 16.431107954545457 25.360863095238095  16.363636363636363 25.193452380952376  16 25  L 16 7.142857142857144  C 16.363636363636363 5.178571428571428  17.031249999999996 3.497023809523805  18.366477272727273 2.098214285714284  C 19.701704545454547 0.6994047619047672  21.30681818181818 0  23.18181818181818 0  L 28.636363636363637 0  C 29.00568181818182 0  29.325284090909093 0.141369047619051  29.595170454545453 0.4241071428571441  Z " stroke-width="0" stroke-dasharray="0" stroke="rgba(255, 255, 255, 0)" fill="none" transform="matrix(1 0 0 1 13 350 )" class="stroke" mask="url(#Clip243)" />
  </g>
</svg>