<?xml version="1.0" encoding="utf-8"?>
<svg version="1.1" xmlns:xlink="http://www.w3.org/1999/xlink" width="36px" height="30px" xmlns="http://www.w3.org/2000/svg">
  <defs>
    <pattern id="BGPattern" patternUnits="userSpaceOnUse" alignment="0 0" imageRepeat="None" />
    <mask fill="white" id="Clip244">
      <path d="M 35.5546875 24.4453125  C 35.8515625 24.742187500000004  36 25.093750000000004  36 25.5  L 36 28.5  C 36 28.90625  35.8515625 29.2578125  35.5546875 29.5546875  C 35.25781250000001 29.8515625  34.90625000000001 30  34.5 30  L 1.5 30  C 1.09375 30  0.7421875 29.8515625  0.4453125 29.5546875  C 0.1484375 29.2578125  0 28.90625  0 28.5  L 0 25.5  C 0 25.093750000000004  0.1484375 24.742187500000004  0.4453125 24.4453125  C 0.7421875 24.1484375  1.09375 24  1.5 24  L 34.5 24  C 34.90625000000001 24  35.25781250000001 24.1484375  35.5546875 24.4453125  Z M 35.5546875 12.445312499999998  C 35.8515625 12.742187499999998  36 13.093749999999998  36 13.499999999999998  L 36 16.5  C 36 16.90625  35.8515625 17.2578125  35.5546875 17.5546875  C 35.25781250000001 17.851562499999996  34.90625000000001 18  34.5 18  L 1.5 18  C 1.09375 18  0.7421875 17.851562499999996  0.4453125 17.5546875  C 0.1484375 17.2578125  0 16.90625  0 16.5  L 0 13.499999999999998  C 0 13.093749999999998  0.1484375 12.742187499999998  0.4453125 12.445312499999998  C 0.7421875 12.148437500000002  1.09375 12  1.5 12  L 34.5 12  C 34.90625000000001 12  35.25781250000001 12.148437500000002  35.5546875 12.445312499999998  Z M 35.5546875 0.44531250000000133  C 35.8515625 0.7421874999999978  36 1.0937499999999978  36 1.5000000000000013  L 36 4.500000000000001  C 36 4.906249999999997  35.8515625 5.257812499999997  35.5546875 5.554687500000001  C 35.25781250000001 5.851562499999997  34.90625000000001 5.999999999999998  34.5 6  L 1.5 6  C 1.09375 5.999999999999998  0.7421875 5.851562499999997  0.4453125 5.554687500000001  C 0.1484375 5.257812499999997  0 4.906249999999997  0 4.500000000000001  L 0 1.5000000000000013  C 0 1.0937499999999978  0.1484375 0.7421874999999978  0.4453125 0.44531250000000133  C 0.7421875 0.14843749999999822  1.09375 0  1.5 0  L 34.5 0  C 34.90625000000001 0  35.25781250000001 0.14843749999999822  35.5546875 0.44531250000000133  Z " fill-rule="evenodd" />
    </mask>
  </defs>
  <g transform="matrix(1 0 0 1 -91 -35 )">
    <path d="M 35.5546875 24.4453125  C 35.8515625 24.742187500000004  36 25.093750000000004  36 25.5  L 36 28.5  C 36 28.90625  35.8515625 29.2578125  35.5546875 29.5546875  C 35.25781250000001 29.8515625  34.90625000000001 30  34.5 30  L 1.5 30  C 1.09375 30  0.7421875 29.8515625  0.4453125 29.5546875  C 0.1484375 29.2578125  0 28.90625  0 28.5  L 0 25.5  C 0 25.093750000000004  0.1484375 24.742187500000004  0.4453125 24.4453125  C 0.7421875 24.1484375  1.09375 24  1.5 24  L 34.5 24  C 34.90625000000001 24  35.25781250000001 24.1484375  35.5546875 24.4453125  Z M 35.5546875 12.445312499999998  C 35.8515625 12.742187499999998  36 13.093749999999998  36 13.499999999999998  L 36 16.5  C 36 16.90625  35.8515625 17.2578125  35.5546875 17.5546875  C 35.25781250000001 17.851562499999996  34.90625000000001 18  34.5 18  L 1.5 18  C 1.09375 18  0.7421875 17.851562499999996  0.4453125 17.5546875  C 0.1484375 17.2578125  0 16.90625  0 16.5  L 0 13.499999999999998  C 0 13.093749999999998  0.1484375 12.742187499999998  0.4453125 12.445312499999998  C 0.7421875 12.148437500000002  1.09375 12  1.5 12  L 34.5 12  C 34.90625000000001 12  35.25781250000001 12.148437500000002  35.5546875 12.445312499999998  Z M 35.5546875 0.44531250000000133  C 35.8515625 0.7421874999999978  36 1.0937499999999978  36 1.5000000000000013  L 36 4.500000000000001  C 36 4.906249999999997  35.8515625 5.257812499999997  35.5546875 5.554687500000001  C 35.25781250000001 5.851562499999997  34.90625000000001 5.999999999999998  34.5 6  L 1.5 6  C 1.09375 5.999999999999998  0.7421875 5.851562499999997  0.4453125 5.554687500000001  C 0.1484375 5.257812499999997  0 4.906249999999997  0 4.500000000000001  L 0 1.5000000000000013  C 0 1.0937499999999978  0.1484375 0.7421874999999978  0.4453125 0.44531250000000133  C 0.7421875 0.14843749999999822  1.09375 0  1.5 0  L 34.5 0  C 34.90625000000001 0  35.25781250000001 0.14843749999999822  35.5546875 0.44531250000000133  Z " fill-rule="nonzero" fill="rgba(255, 255, 255, 1)" stroke="none" transform="matrix(1 0 0 1 91 35 )" class="fill" />
    <path d="M 35.5546875 24.4453125  C 35.8515625 24.742187500000004  36 25.093750000000004  36 25.5  L 36 28.5  C 36 28.90625  35.8515625 29.2578125  35.5546875 29.5546875  C 35.25781250000001 29.8515625  34.90625000000001 30  34.5 30  L 1.5 30  C 1.09375 30  0.7421875 29.8515625  0.4453125 29.5546875  C 0.1484375 29.2578125  0 28.90625  0 28.5  L 0 25.5  C 0 25.093750000000004  0.1484375 24.742187500000004  0.4453125 24.4453125  C 0.7421875 24.1484375  1.09375 24  1.5 24  L 34.5 24  C 34.90625000000001 24  35.25781250000001 24.1484375  35.5546875 24.4453125  Z " stroke-width="0" stroke-dasharray="0" stroke="rgba(255, 255, 255, 0)" fill="none" transform="matrix(1 0 0 1 91 35 )" class="stroke" mask="url(#Clip244)" />
    <path d="M 35.5546875 12.445312499999998  C 35.8515625 12.742187499999998  36 13.093749999999998  36 13.499999999999998  L 36 16.5  C 36 16.90625  35.8515625 17.2578125  35.5546875 17.5546875  C 35.25781250000001 17.851562499999996  34.90625000000001 18  34.5 18  L 1.5 18  C 1.09375 18  0.7421875 17.851562499999996  0.4453125 17.5546875  C 0.1484375 17.2578125  0 16.90625  0 16.5  L 0 13.499999999999998  C 0 13.093749999999998  0.1484375 12.742187499999998  0.4453125 12.445312499999998  C 0.7421875 12.148437500000002  1.09375 12  1.5 12  L 34.5 12  C 34.90625000000001 12  35.25781250000001 12.148437500000002  35.5546875 12.445312499999998  Z " stroke-width="0" stroke-dasharray="0" stroke="rgba(255, 255, 255, 0)" fill="none" transform="matrix(1 0 0 1 91 35 )" class="stroke" mask="url(#Clip244)" />
    <path d="M 35.5546875 0.44531250000000133  C 35.8515625 0.7421874999999978  36 1.0937499999999978  36 1.5000000000000013  L 36 4.500000000000001  C 36 4.906249999999997  35.8515625 5.257812499999997  35.5546875 5.554687500000001  C 35.25781250000001 5.851562499999997  34.90625000000001 5.999999999999998  34.5 6  L 1.5 6  C 1.09375 5.999999999999998  0.7421875 5.851562499999997  0.4453125 5.554687500000001  C 0.1484375 5.257812499999997  0 4.906249999999997  0 4.500000000000001  L 0 1.5000000000000013  C 0 1.0937499999999978  0.1484375 0.7421874999999978  0.4453125 0.44531250000000133  C 0.7421875 0.14843749999999822  1.09375 0  1.5 0  L 34.5 0  C 34.90625000000001 0  35.25781250000001 0.14843749999999822  35.5546875 0.44531250000000133  Z " stroke-width="0" stroke-dasharray="0" stroke="rgba(255, 255, 255, 0)" fill="none" transform="matrix(1 0 0 1 91 35 )" class="stroke" mask="url(#Clip244)" />
  </g>
</svg>