<?xml version="1.0" encoding="utf-8"?>
<svg version="1.1" xmlns:xlink="http://www.w3.org/1999/xlink" width="26px" height="40px" xmlns="http://www.w3.org/2000/svg">
  <defs>
    <pattern id="BGPattern" patternUnits="userSpaceOnUse" alignment="0 0" imageRepeat="None" />
    <mask fill="white" id="Clip235">
      <path d="M 17.595703125 18.046875  C 18.865234375 16.744791666666664  19.5 15.17361111111111  19.5 13.333333333333336  C 19.5 11.493055555555554  18.865234375 9.921875  17.595703125 8.619791666666664  C 16.326171875 7.317708333333335  14.794270833333336 6.666666666666665  13 6.666666666666665  C 11.205729166666668 6.666666666666665  9.673828125 7.317708333333335  8.404296875 8.619791666666664  C 7.134765625 9.921875  6.5 11.493055555555554  6.5 13.333333333333336  C 6.5 15.17361111111111  7.134765625 16.744791666666664  8.404296875 18.046875  C 9.673828125 19.348958333333336  11.205729166666668 20  13 20  C 14.794270833333336 20  16.326171875 19.348958333333336  17.595703125 18.046875  Z M 22.19140625 3.90625  C 24.73046875 6.510416666666665  26 9.652777777777771  26 13.333333333333336  C 26 15.225694444444443  25.720703125 16.77951388888889  25.162109375 17.994791666666664  L 15.919921875 38.151041666666664  C 15.649088541666668 38.723958333333336  15.2470703125 39.17534722222222  14.7138671875 39.505208333333336  C 14.1806640625 39.83506944444444  13.609375 40  13 40  C 12.390625 40  11.8193359375 39.83506944444444  11.2861328125 39.505208333333336  C 10.7529296875 39.17534722222222  10.359375 38.723958333333336  10.10546875 38.151041666666664  L 0.837890625 17.994791666666664  C 0.279296875 16.77951388888889  0 15.225694444444443  0 13.333333333333336  C 0 9.652777777777771  1.26953125 6.510416666666665  3.80859375 3.90625  C 6.347656250000001 1.3020833333333348  9.411458333333334 0  13 0  C 16.588541666666668 0  19.65234375 1.3020833333333348  22.19140625 3.90625  Z " fill-rule="evenodd" />
    </mask>
  </defs>
  <g transform="matrix(1 0 0 1 -624 -2612 )">
    <path d="M 17.595703125 18.046875  C 18.865234375 16.744791666666664  19.5 15.17361111111111  19.5 13.333333333333336  C 19.5 11.493055555555554  18.865234375 9.921875  17.595703125 8.619791666666664  C 16.326171875 7.317708333333335  14.794270833333336 6.666666666666665  13 6.666666666666665  C 11.205729166666668 6.666666666666665  9.673828125 7.317708333333335  8.404296875 8.619791666666664  C 7.134765625 9.921875  6.5 11.493055555555554  6.5 13.333333333333336  C 6.5 15.17361111111111  7.134765625 16.744791666666664  8.404296875 18.046875  C 9.673828125 19.348958333333336  11.205729166666668 20  13 20  C 14.794270833333336 20  16.326171875 19.348958333333336  17.595703125 18.046875  Z M 22.19140625 3.90625  C 24.73046875 6.510416666666665  26 9.652777777777771  26 13.333333333333336  C 26 15.225694444444443  25.720703125 16.77951388888889  25.162109375 17.994791666666664  L 15.919921875 38.151041666666664  C 15.649088541666668 38.723958333333336  15.2470703125 39.17534722222222  14.7138671875 39.505208333333336  C 14.1806640625 39.83506944444444  13.609375 40  13 40  C 12.390625 40  11.8193359375 39.83506944444444  11.2861328125 39.505208333333336  C 10.7529296875 39.17534722222222  10.359375 38.723958333333336  10.10546875 38.151041666666664  L 0.837890625 17.994791666666664  C 0.279296875 16.77951388888889  0 15.225694444444443  0 13.333333333333336  C 0 9.652777777777771  1.26953125 6.510416666666665  3.80859375 3.90625  C 6.347656250000001 1.3020833333333348  9.411458333333334 0  13 0  C 16.588541666666668 0  19.65234375 1.3020833333333348  22.19140625 3.90625  Z " fill-rule="nonzero" fill="rgba(0, 0, 0, 1)" stroke="none" transform="matrix(1 0 0 1 624 2612 )" class="fill" />
    <path d="M 17.595703125 18.046875  C 18.865234375 16.744791666666664  19.5 15.17361111111111  19.5 13.333333333333336  C 19.5 11.493055555555554  18.865234375 9.921875  17.595703125 8.619791666666664  C 16.326171875 7.317708333333335  14.794270833333336 6.666666666666665  13 6.666666666666665  C 11.205729166666668 6.666666666666665  9.673828125 7.317708333333335  8.404296875 8.619791666666664  C 7.134765625 9.921875  6.5 11.493055555555554  6.5 13.333333333333336  C 6.5 15.17361111111111  7.134765625 16.744791666666664  8.404296875 18.046875  C 9.673828125 19.348958333333336  11.205729166666668 20  13 20  C 14.794270833333336 20  16.326171875 19.348958333333336  17.595703125 18.046875  Z " stroke-width="0" stroke-dasharray="0" stroke="rgba(255, 255, 255, 0)" fill="none" transform="matrix(1 0 0 1 624 2612 )" class="stroke" mask="url(#Clip235)" />
    <path d="M 22.19140625 3.90625  C 24.73046875 6.510416666666665  26 9.652777777777771  26 13.333333333333336  C 26 15.225694444444443  25.720703125 16.77951388888889  25.162109375 17.994791666666664  L 15.919921875 38.151041666666664  C 15.649088541666668 38.723958333333336  15.2470703125 39.17534722222222  14.7138671875 39.505208333333336  C 14.1806640625 39.83506944444444  13.609375 40  13 40  C 12.390625 40  11.8193359375 39.83506944444444  11.2861328125 39.505208333333336  C 10.7529296875 39.17534722222222  10.359375 38.723958333333336  10.10546875 38.151041666666664  L 0.837890625 17.994791666666664  C 0.279296875 16.77951388888889  0 15.225694444444443  0 13.333333333333336  C 0 9.652777777777771  1.26953125 6.510416666666665  3.80859375 3.90625  C 6.347656250000001 1.3020833333333348  9.411458333333334 0  13 0  C 16.588541666666668 0  19.65234375 1.3020833333333348  22.19140625 3.90625  Z " stroke-width="0" stroke-dasharray="0" stroke="rgba(255, 255, 255, 0)" fill="none" transform="matrix(1 0 0 1 624 2612 )" class="stroke" mask="url(#Clip235)" />
  </g>
</svg>