<?xml version="1.0" encoding="utf-8"?>
<svg version="1.1" xmlns:xlink="http://www.w3.org/1999/xlink" width="34px" height="27px" xmlns="http://www.w3.org/2000/svg">
  <defs>
    <pattern id="BGPattern" patternUnits="userSpaceOnUse" alignment="0 0" imageRepeat="None" />
    <mask fill="white" id="Clip237">
      <path d="M 31.391183035714285 24.36328125  C 31.511346726190478 24.24183238636364  31.571428571428573 24.098011363636367  31 23.93181818181818  L 31 9.204545454545455  C 31.16666666666667 9.664772727272727  30.730282738095244 10.086647727272727  30.262276785714285 10.470170454545455  C 26.872395833333336 13.10369318181818  24.17819940476191 15.264204545454547  22.1796875 16.951704545454547  C 21.534598214285715 17.50142045454545  21.00967261904762 17.9296875  20.604910714285715 18.23650568181818  C 20.20014880952381 18.543323863636363  19.65308779761905 18.853338068181817  18.963727678571427 19.166548295454547  C 18.27436755952381 19.479758522727273  17.626116071428573 19.636363636363637  17.018973214285715 19.636363636363637  L 17 19.636363636363637  L 16.981026785714285 19.636363636363637  C 16.37388392857143 19.636363636363637  15.725632440476192 19.479758522727273  15.036272321428571 19.166548295454547  C 14.346912202380954 18.853338068181817  13.799851190476192 18.543323863636363  13.395089285714286 18.23650568181818  C 12.990327380952383 17.9296875  12.465401785714286 17.50142045454545  11.8203125 16.951704545454547  C 9.821800595238097 15.264204545454547  7.127604166666668 13.10369318181818  3.7377232142857144 10.470170454545455  C 3.269717261904762 10.086647727272727  2.8333333333333335 9.664772727272727  3 9.204545454545455  L 3 23.93181818181818  C 2.4285714285714284 24.098011363636367  2.488653273809524 24.24183238636364  2.6088169642857144 24.36328125  C 2.7289806547619047 24.48473011363636  2.871279761904762 24.545454545454543  3.0357142857142856 24.545454545454543  L 30.964285714285715 24.545454545454543  C 31.128720238095237 24.545454545454543  31.271019345238095 24.48473011363636  31.391183035714285 24.36328125  Z M 30.689174107142858 6.299360795454545  C 31.27734375 5.3725142045454515  31.571428571428573 4.5319602272727275  31.571428571428573 3.7776988636363633  L 31.571428571428573 3.5667613636363633  L 31.571428571428573 3.307883522727274  C 31.571428571428573 3.307883522727274  31.56826636904762 3.2247869318181777  31.561941964285715 3.05859375  C 31.55561755952381 2.8924005681818166  31.536644345238095 2.812499999999996  31.505022321428573 2.8188920454545445  C 31.47340029761905 2.8252840909090904  31.438616071428573 2.7677556818181794  31.400669642857142 2.6463068181818183  C 31.362723214285715 2.5248579545454515  31.305803571428573 2.476917613636362  31.229910714285715 2.5024857954545445  C 31.154017857142858 2.528053977272727  31.065476190476193 2.5120738636363633  30.964285714285715 2.4545454545454555  L 3.0357142857142856 2.4545454545454555  C 2.871279761904762 2.4545454545454555  2.7289806547619047 2.515269886363633  2.6088169642857144 2.63671875  C 2.488653273809524 2.758167613636361  2.4285714285714284 2.901988636363635  2.4285714285714284 3.0681818181818183  C 2.4285714285714284 5.215909090909093  3.3582589285714284 7.0312499999999964  5.217633928571429 8.514204545454545  C 7.658854166666668 10.457386363636362  10.194940476190478 12.483664772727273  12.825892857142858 14.593039772727273  C 12.901785714285714 14.656960227272725  13.123139880952383 14.845525568181817  13.489955357142858 15.158735795454547  C 13.856770833333334 15.471946022727272  14.147693452380954 15.711647727272725  14.362723214285714 15.87784090909091  C 14.57775297619048 16.04403409090909  14.859188988095239 16.24538352272727  15.20703125 16.481889204545453  C 15.554873511904763 16.718394886363633  15.874255952380954 16.894176136363637  16.16517857142857 17.009232954545453  C 16.45610119047619 17.124289772727273  16.728050595238095 17.18181818181818  16.981026785714285 17.18181818181818  L 17 17.18181818181818  L 17.018973214285715 17.18181818181818  C 17.27194940476191 17.18181818181818  17.54389880952381 17.124289772727273  17.834821428571427 17.009232954545453  C 18.12574404761905 16.894176136363637  18.445126488095237 16.718394886363633  18.79296875 16.481889204545453  C 19.140811011904763 16.24538352272727  19.422247023809526 16.04403409090909  19.637276785714285 15.87784090909091  C 19.85230654761905 15.711647727272725  20.143229166666668 15.471946022727272  20.510044642857142 15.158735795454547  C 20.87686011904762 14.845525568181817  21.098214285714285 14.656960227272725  21.174107142857142 14.593039772727273  C 23.805059523809526 12.483664772727273  26.341145833333336 10.457386363636362  28.782366071428573 8.514204545454545  C 29.465401785714285 7.964488636363635  30.101004464285715 7.226207386363635  30.689174107142858 6.299360795454545  Z M 33.10825892857143 0.9012784090909077  C 33.70275297619048 1.5021306818181794  34 2.2244318181818183  34 3.0681818181818183  L 34 23.93181818181818  C 34 24.77556818181818  33.70275297619048 25.49786931818182  33.10825892857143 26.098721590909093  C 32.51376488095239 26.69957386363636  31.79910714285715 27  30.964285714285715 27  L 3.0357142857142856 27  C 2.200892857142857 27  1.4862351190476193 26.69957386363636  0.8917410714285714 26.098721590909093  C 0.29724702380952384 25.49786931818182  0 24.77556818181818  0 23.93181818181818  L 0 3.0681818181818183  C 0 2.2244318181818183  0.29724702380952384 1.5021306818181794  0.8917410714285714 0.9012784090909077  C 1.4862351190476193 0.3004261363636329  2.200892857142857 0  3.0357142857142856 0  L 30.964285714285715 0  C 31.79910714285715 0  32.51376488095239 0.3004261363636329  33.10825892857143 0.9012784090909077  Z " fill-rule="evenodd" />
    </mask>
  </defs>
  <g transform="matrix(1 0 0 1 -620 -2767 )">
    <path d="M 31.391183035714285 24.36328125  C 31.511346726190478 24.24183238636364  31.571428571428573 24.098011363636367  31 23.93181818181818  L 31 9.204545454545455  C 31.16666666666667 9.664772727272727  30.730282738095244 10.086647727272727  30.262276785714285 10.470170454545455  C 26.872395833333336 13.10369318181818  24.17819940476191 15.264204545454547  22.1796875 16.951704545454547  C 21.534598214285715 17.50142045454545  21.00967261904762 17.9296875  20.604910714285715 18.23650568181818  C 20.20014880952381 18.543323863636363  19.65308779761905 18.853338068181817  18.963727678571427 19.166548295454547  C 18.27436755952381 19.479758522727273  17.626116071428573 19.636363636363637  17.018973214285715 19.636363636363637  L 17 19.636363636363637  L 16.981026785714285 19.636363636363637  C 16.37388392857143 19.636363636363637  15.725632440476192 19.479758522727273  15.036272321428571 19.166548295454547  C 14.346912202380954 18.853338068181817  13.799851190476192 18.543323863636363  13.395089285714286 18.23650568181818  C 12.990327380952383 17.9296875  12.465401785714286 17.50142045454545  11.8203125 16.951704545454547  C 9.821800595238097 15.264204545454547  7.127604166666668 13.10369318181818  3.7377232142857144 10.470170454545455  C 3.269717261904762 10.086647727272727  2.8333333333333335 9.664772727272727  3 9.204545454545455  L 3 23.93181818181818  C 2.4285714285714284 24.098011363636367  2.488653273809524 24.24183238636364  2.6088169642857144 24.36328125  C 2.7289806547619047 24.48473011363636  2.871279761904762 24.545454545454543  3.0357142857142856 24.545454545454543  L 30.964285714285715 24.545454545454543  C 31.128720238095237 24.545454545454543  31.271019345238095 24.48473011363636  31.391183035714285 24.36328125  Z M 30.689174107142858 6.299360795454545  C 31.27734375 5.3725142045454515  31.571428571428573 4.5319602272727275  31.571428571428573 3.7776988636363633  L 31.571428571428573 3.5667613636363633  L 31.571428571428573 3.307883522727274  C 31.571428571428573 3.307883522727274  31.56826636904762 3.2247869318181777  31.561941964285715 3.05859375  C 31.55561755952381 2.8924005681818166  31.536644345238095 2.812499999999996  31.505022321428573 2.8188920454545445  C 31.47340029761905 2.8252840909090904  31.438616071428573 2.7677556818181794  31.400669642857142 2.6463068181818183  C 31.362723214285715 2.5248579545454515  31.305803571428573 2.476917613636362  31.229910714285715 2.5024857954545445  C 31.154017857142858 2.528053977272727  31.065476190476193 2.5120738636363633  30.964285714285715 2.4545454545454555  L 3.0357142857142856 2.4545454545454555  C 2.871279761904762 2.4545454545454555  2.7289806547619047 2.515269886363633  2.6088169642857144 2.63671875  C 2.488653273809524 2.758167613636361  2.4285714285714284 2.901988636363635  2.4285714285714284 3.0681818181818183  C 2.4285714285714284 5.215909090909093  3.3582589285714284 7.0312499999999964  5.217633928571429 8.514204545454545  C 7.658854166666668 10.457386363636362  10.194940476190478 12.483664772727273  12.825892857142858 14.593039772727273  C 12.901785714285714 14.656960227272725  13.123139880952383 14.845525568181817  13.489955357142858 15.158735795454547  C 13.856770833333334 15.471946022727272  14.147693452380954 15.711647727272725  14.362723214285714 15.87784090909091  C 14.57775297619048 16.04403409090909  14.859188988095239 16.24538352272727  15.20703125 16.481889204545453  C 15.554873511904763 16.718394886363633  15.874255952380954 16.894176136363637  16.16517857142857 17.009232954545453  C 16.45610119047619 17.124289772727273  16.728050595238095 17.18181818181818  16.981026785714285 17.18181818181818  L 17 17.18181818181818  L 17.018973214285715 17.18181818181818  C 17.27194940476191 17.18181818181818  17.54389880952381 17.124289772727273  17.834821428571427 17.009232954545453  C 18.12574404761905 16.894176136363637  18.445126488095237 16.718394886363633  18.79296875 16.481889204545453  C 19.140811011904763 16.24538352272727  19.422247023809526 16.04403409090909  19.637276785714285 15.87784090909091  C 19.85230654761905 15.711647727272725  20.143229166666668 15.471946022727272  20.510044642857142 15.158735795454547  C 20.87686011904762 14.845525568181817  21.098214285714285 14.656960227272725  21.174107142857142 14.593039772727273  C 23.805059523809526 12.483664772727273  26.341145833333336 10.457386363636362  28.782366071428573 8.514204545454545  C 29.465401785714285 7.964488636363635  30.101004464285715 7.226207386363635  30.689174107142858 6.299360795454545  Z M 33.10825892857143 0.9012784090909077  C 33.70275297619048 1.5021306818181794  34 2.2244318181818183  34 3.0681818181818183  L 34 23.93181818181818  C 34 24.77556818181818  33.70275297619048 25.49786931818182  33.10825892857143 26.098721590909093  C 32.51376488095239 26.69957386363636  31.79910714285715 27  30.964285714285715 27  L 3.0357142857142856 27  C 2.200892857142857 27  1.4862351190476193 26.69957386363636  0.8917410714285714 26.098721590909093  C 0.29724702380952384 25.49786931818182  0 24.77556818181818  0 23.93181818181818  L 0 3.0681818181818183  C 0 2.2244318181818183  0.29724702380952384 1.5021306818181794  0.8917410714285714 0.9012784090909077  C 1.4862351190476193 0.3004261363636329  2.200892857142857 0  3.0357142857142856 0  L 30.964285714285715 0  C 31.79910714285715 0  32.51376488095239 0.3004261363636329  33.10825892857143 0.9012784090909077  Z " fill-rule="nonzero" fill="rgba(0, 0, 0, 1)" stroke="none" transform="matrix(1 0 0 1 620 2767 )" class="fill" />
    <path d="M 31.391183035714285 24.36328125  C 31.511346726190478 24.24183238636364  31.571428571428573 24.098011363636367  31 23.93181818181818  L 31 9.204545454545455  C 31.16666666666667 9.664772727272727  30.730282738095244 10.086647727272727  30.262276785714285 10.470170454545455  C 26.872395833333336 13.10369318181818  24.17819940476191 15.264204545454547  22.1796875 16.951704545454547  C 21.534598214285715 17.50142045454545  21.00967261904762 17.9296875  20.604910714285715 18.23650568181818  C 20.20014880952381 18.543323863636363  19.65308779761905 18.853338068181817  18.963727678571427 19.166548295454547  C 18.27436755952381 19.479758522727273  17.626116071428573 19.636363636363637  17.018973214285715 19.636363636363637  L 17 19.636363636363637  L 16.981026785714285 19.636363636363637  C 16.37388392857143 19.636363636363637  15.725632440476192 19.479758522727273  15.036272321428571 19.166548295454547  C 14.346912202380954 18.853338068181817  13.799851190476192 18.543323863636363  13.395089285714286 18.23650568181818  C 12.990327380952383 17.9296875  12.465401785714286 17.50142045454545  11.8203125 16.951704545454547  C 9.821800595238097 15.264204545454547  7.127604166666668 13.10369318181818  3.7377232142857144 10.470170454545455  C 3.269717261904762 10.086647727272727  2.8333333333333335 9.664772727272727  3 9.204545454545455  L 3 23.93181818181818  C 2.4285714285714284 24.098011363636367  2.488653273809524 24.24183238636364  2.6088169642857144 24.36328125  C 2.7289806547619047 24.48473011363636  2.871279761904762 24.545454545454543  3.0357142857142856 24.545454545454543  L 30.964285714285715 24.545454545454543  C 31.128720238095237 24.545454545454543  31.271019345238095 24.48473011363636  31.391183035714285 24.36328125  Z " stroke-width="0" stroke-dasharray="0" stroke="rgba(255, 255, 255, 0)" fill="none" transform="matrix(1 0 0 1 620 2767 )" class="stroke" mask="url(#Clip237)" />
    <path d="M 30.689174107142858 6.299360795454545  C 31.27734375 5.3725142045454515  31.571428571428573 4.5319602272727275  31.571428571428573 3.7776988636363633  L 31.571428571428573 3.5667613636363633  L 31.571428571428573 3.307883522727274  C 31.571428571428573 3.307883522727274  31.56826636904762 3.2247869318181777  31.561941964285715 3.05859375  C 31.55561755952381 2.8924005681818166  31.536644345238095 2.812499999999996  31.505022321428573 2.8188920454545445  C 31.47340029761905 2.8252840909090904  31.438616071428573 2.7677556818181794  31.400669642857142 2.6463068181818183  C 31.362723214285715 2.5248579545454515  31.305803571428573 2.476917613636362  31.229910714285715 2.5024857954545445  C 31.154017857142858 2.528053977272727  31.065476190476193 2.5120738636363633  30.964285714285715 2.4545454545454555  L 3.0357142857142856 2.4545454545454555  C 2.871279761904762 2.4545454545454555  2.7289806547619047 2.515269886363633  2.6088169642857144 2.63671875  C 2.488653273809524 2.758167613636361  2.4285714285714284 2.901988636363635  2.4285714285714284 3.0681818181818183  C 2.4285714285714284 5.215909090909093  3.3582589285714284 7.0312499999999964  5.217633928571429 8.514204545454545  C 7.658854166666668 10.457386363636362  10.194940476190478 12.483664772727273  12.825892857142858 14.593039772727273  C 12.901785714285714 14.656960227272725  13.123139880952383 14.845525568181817  13.489955357142858 15.158735795454547  C 13.856770833333334 15.471946022727272  14.147693452380954 15.711647727272725  14.362723214285714 15.87784090909091  C 14.57775297619048 16.04403409090909  14.859188988095239 16.24538352272727  15.20703125 16.481889204545453  C 15.554873511904763 16.718394886363633  15.874255952380954 16.894176136363637  16.16517857142857 17.009232954545453  C 16.45610119047619 17.124289772727273  16.728050595238095 17.18181818181818  16.981026785714285 17.18181818181818  L 17 17.18181818181818  L 17.018973214285715 17.18181818181818  C 17.27194940476191 17.18181818181818  17.54389880952381 17.124289772727273  17.834821428571427 17.009232954545453  C 18.12574404761905 16.894176136363637  18.445126488095237 16.718394886363633  18.79296875 16.481889204545453  C 19.140811011904763 16.24538352272727  19.422247023809526 16.04403409090909  19.637276785714285 15.87784090909091  C 19.85230654761905 15.711647727272725  20.143229166666668 15.471946022727272  20.510044642857142 15.158735795454547  C 20.87686011904762 14.845525568181817  21.098214285714285 14.656960227272725  21.174107142857142 14.593039772727273  C 23.805059523809526 12.483664772727273  26.341145833333336 10.457386363636362  28.782366071428573 8.514204545454545  C 29.465401785714285 7.964488636363635  30.101004464285715 7.226207386363635  30.689174107142858 6.299360795454545  Z " stroke-width="0" stroke-dasharray="0" stroke="rgba(255, 255, 255, 0)" fill="none" transform="matrix(1 0 0 1 620 2767 )" class="stroke" mask="url(#Clip237)" />
    <path d="M 33.10825892857143 0.9012784090909077  C 33.70275297619048 1.5021306818181794  34 2.2244318181818183  34 3.0681818181818183  L 34 23.93181818181818  C 34 24.77556818181818  33.70275297619048 25.49786931818182  33.10825892857143 26.098721590909093  C 32.51376488095239 26.69957386363636  31.79910714285715 27  30.964285714285715 27  L 3.0357142857142856 27  C 2.200892857142857 27  1.4862351190476193 26.69957386363636  0.8917410714285714 26.098721590909093  C 0.29724702380952384 25.49786931818182  0 24.77556818181818  0 23.93181818181818  L 0 3.0681818181818183  C 0 2.2244318181818183  0.29724702380952384 1.5021306818181794  0.8917410714285714 0.9012784090909077  C 1.4862351190476193 0.3004261363636329  2.200892857142857 0  3.0357142857142856 0  L 30.964285714285715 0  C 31.79910714285715 0  32.51376488095239 0.3004261363636329  33.10825892857143 0.9012784090909077  Z " stroke-width="0" stroke-dasharray="0" stroke="rgba(255, 255, 255, 0)" fill="none" transform="matrix(1 0 0 1 620 2767 )" class="stroke" mask="url(#Clip237)" />
  </g>
</svg>