<?xml version="1.0" encoding="utf-8"?>
<svg version="1.1" xmlns:xlink="http://www.w3.org/1999/xlink" width="37px" height="31px" xmlns="http://www.w3.org/2000/svg">
  <defs>
    <pattern id="BGPattern" patternUnits="userSpaceOnUse" alignment="0 0" imageRepeat="None" />
    <mask fill="white" id="Clip238">
      <path d="M 26.615985576923077 10.854403409090908  C 26.89763621794872 10.57552083333333  27.038461538461537 10.24526515151515  27.038461538461537 9.863636363636365  C 27.038461538461537 9.482007575757573  26.89763621794872 9.15175189393939  26.615985576923077 8.872869318181818  C 26.33433493589744 8.593986742424242  26.000801282051285 8.454545454545453  25.615384615384613 8.454545454545453  L 22.76923076923077 8.454545454545453  L 22.76923076923077 5.636363636363635  C 22.76923076923077 5.254734848484846  22.62840544871795 4.9244791666666625  22.346754807692307 4.645596590909092  C 22.065104166666668 4.366714015151512  21.731570512820515 4.227272727272727  21.346153846153843 4.227272727272727  C 20.960737179487182 4.227272727272727  20.62720352564103 4.366714015151512  20.345552884615387 4.645596590909092  C 20.063902243589745 4.9244791666666625  19.923076923076923 5.254734848484846  19.923076923076923 5.636363636363635  L 19.923076923076923 8.454545454545453  L 17.076923076923077 8.454545454545453  C 16.691506410256412 8.454545454545453  16.35797275641026 8.593986742424242  16.076322115384613 8.872869318181818  C 15.794671474358974 9.15175189393939  15.653846153846153 9.482007575757573  15.653846153846153 9.863636363636365  C 15.653846153846153 10.24526515151515  15.794671474358974 10.57552083333333  16.076322115384613 10.854403409090908  C 16.35797275641026 11.133285984848488  16.691506410256412 11.272727272727273  17.076923076923077 11.272727272727273  L 19.923076923076923 11.272727272727273  L 19.923076923076923 14.090909090909092  C 19.923076923076923 14.472537878787877  20.063902243589745 14.802793560606059  20.345552884615387 15.081676136363635  C 20.62720352564103 15.360558712121211  20.960737179487182 15.5  21.346153846153843 15.5  C 21.731570512820515 15.5  22.065104166666668 15.360558712121211  22.346754807692307 15.081676136363635  C 22.62840544871795 14.802793560606059  22.76923076923077 14.472537878787877  22.76923076923077 14.090909090909092  L 22.76923076923077 11.272727272727273  L 25.615384615384613 11.272727272727273  C 26.000801282051285 11.272727272727273  26.33433493589744 11.133285984848488  26.615985576923077 10.854403409090908  Z M 13.396935096153847 26.18927556818182  C 13.952824519230768 26.739701704545453  14.230769230769232 27.403882575757578  14.230769230769232 28.18181818181818  C 14.230769230769232 28.959753787878785  13.952824519230768 29.623934659090907  13.396935096153847 30.174360795454547  C 12.841045673076922 30.72478693181818  12.170272435897436 31  11.384615384615385 31  C 10.598958333333334 31  9.928185096153848 30.72478693181818  9.372295673076922 30.174360795454547  C 8.81640625 29.623934659090907  8.538461538461538 28.959753787878785  8.538461538461538 28.18181818181818  C 8.538461538461538 27.403882575757578  8.81640625 26.739701704545453  9.372295673076922 26.18927556818182  C 9.928185096153848 25.63884943181818  10.598958333333334 25.363636363636363  11.384615384615385 25.363636363636363  C 12.170272435897436 25.363636363636363  12.841045673076922 25.63884943181818  13.396935096153847 26.18927556818182  Z M 33.320012019230774 26.18927556818182  C 33.87590144230769 26.739701704545453  34.15384615384615 27.403882575757578  34.15384615384615 28.18181818181818  C 34.15384615384615 28.959753787878785  33.87590144230769 29.623934659090907  33.320012019230774 30.174360795454547  C 32.76412259615385 30.72478693181818  32.093349358974365 31  31.307692307692307 31  C 30.522035256410255 31  29.85126201923077 30.72478693181818  29.295372596153843 30.174360795454547  C 28.739483173076923 29.623934659090907  28.461538461538463 28.959753787878785  28.461538461538463 28.18181818181818  C 28.461538461538463 27.403882575757578  28.739483173076923 26.739701704545453  29.295372596153843 26.18927556818182  C 29.85126201923077 25.63884943181818  30.522035256410255 25.363636363636363  31.307692307692307 25.363636363636363  C 32.093349358974365 25.363636363636363  32.76412259615385 25.63884943181818  33.320012019230774 26.18927556818182  Z M 36.57752403846154 3.2365056818181808  C 36.85917467948718 3.5153882575757542  37 3.845643939393935  37 4.227272727272727  L 37 15.5  C 37 15.852272727272727  36.881410256410255 16.164180871212125  36.644230769230774 16.435724431818183  C 36.407051282051285 16.70726799242424  36.10316506410257 16.865056818181817  35.73257211538461 16.909090909090907  L 12.518629807692307 19.595170454545453  C 12.533453525641027 19.69791666666666  12.566806891025642 19.85570549242424  12.618689903846153 20.068536931818183  C 12.670572916666668 20.281368371212118  12.715044070512821 20.475852272727273  12.752103365384615 20.651988636363637  C 12.789162660256412 20.828125  12.807692307692307 20.989583333333332  12.807692307692307 21.136363636363637  C 12.807692307692307 21.371212121212118  12.629807692307693 21.840909090909093  12.274038461538462 22  L 32.730769230769226 22  C 33.1161858974359 22.545454545454547  33.44971955128206 22.684895833333332  33.73137019230769 22.963778409090907  C 34.01302083333333 23.242660984848484  34.15384615384615 23.572916666666668  34.15384615384615 23.954545454545453  C 34.15384615384615 24.33617424242424  34.01302083333333 24.666429924242422  33.73137019230769 24.9453125  C 33.44971955128206 25.224195075757578  33.1161858974359 25.363636363636363  32.730769230769226 25  L 9.961538461538462 25  C 9.576121794871796 25.363636363636363  9.24258814102564 25.224195075757578  8.9609375 24.9453125  C 8.67928685897436 24.666429924242422  8.538461538461538 24.33617424242424  8.538461538461538 23.954545454545453  C 8.538461538461538 23.74905303030303  8.619991987179485 23.45916193181818  8.783052884615385 23.084872159090907  C 8.946113782051283 22.710582386363637  9.164763621794872 22.27391098484848  9.439002403846153 21.774857954545453  C 9.713241185897436 21.275804924242422  9.865184294871796 20.996922348484848  9.894831730769232 20.938210227272727  L 5.959134615384616 2.8181818181818192  L 1.4230769230769231 2.8181818181818192  C 1.0376602564102566 2.8181818181818192  0.7041266025641026 2.678740530303027  0.4224759615384615 2.399857954545454  C 0.1408253205128205 2.120975378787877  0 1.7907196969696964  0 1.4090909090909078  C 0 1.0274621212121193  0.1408253205128205 0.6972064393939351  0.4224759615384615 0.4183238636363652  C 0.7041266025641026 0.13944128787878496  1.0376602564102566 0  1.4230769230769231 0  L 7.115384615384616 0  C 7.352564102564103 0  7.563802083333334 0.0477035984848464  7.7490985576923075 0.14311079545454608  C 7.934395032051283 0.23851799242424232  8.082632211538462 0.35227272727272696  8.193810096153847 0.484375  C 8.30498798076923 0.616477272727273  8.401342147435898 0.796283143939389  8.482872596153847 1.023792613636365  C 8.564403044871797 1.251302083333331  8.619991987179489 1.4457859848484813  8.649639423076923 1.6072443181818192  C 8.67928685897436 1.76870265151515  8.720052083333334 1.9852035984848464  8.771935096153847 2.256747159090908  C 8.82381810897436 2.5282907196969693  8.857171474358974 2.715435606060604  8.871995192307693 3  L 35.57692307692308 3  C 35.962339743589745 2.8181818181818192  36.2958733974359 2.957623106060604  36.57752403846154 3.2365056818181808  Z " fill-rule="evenodd" />
    </mask>
  </defs>
  <g transform="matrix(1 0 0 1 -114 -863 )">
    <path d="M 26.615985576923077 10.854403409090908  C 26.89763621794872 10.57552083333333  27.038461538461537 10.24526515151515  27.038461538461537 9.863636363636365  C 27.038461538461537 9.482007575757573  26.89763621794872 9.15175189393939  26.615985576923077 8.872869318181818  C 26.33433493589744 8.593986742424242  26.000801282051285 8.454545454545453  25.615384615384613 8.454545454545453  L 22.76923076923077 8.454545454545453  L 22.76923076923077 5.636363636363635  C 22.76923076923077 5.254734848484846  22.62840544871795 4.9244791666666625  22.346754807692307 4.645596590909092  C 22.065104166666668 4.366714015151512  21.731570512820515 4.227272727272727  21.346153846153843 4.227272727272727  C 20.960737179487182 4.227272727272727  20.62720352564103 4.366714015151512  20.345552884615387 4.645596590909092  C 20.063902243589745 4.9244791666666625  19.923076923076923 5.254734848484846  19.923076923076923 5.636363636363635  L 19.923076923076923 8.454545454545453  L 17.076923076923077 8.454545454545453  C 16.691506410256412 8.454545454545453  16.35797275641026 8.593986742424242  16.076322115384613 8.872869318181818  C 15.794671474358974 9.15175189393939  15.653846153846153 9.482007575757573  15.653846153846153 9.863636363636365  C 15.653846153846153 10.24526515151515  15.794671474358974 10.57552083333333  16.076322115384613 10.854403409090908  C 16.35797275641026 11.133285984848488  16.691506410256412 11.272727272727273  17.076923076923077 11.272727272727273  L 19.923076923076923 11.272727272727273  L 19.923076923076923 14.090909090909092  C 19.923076923076923 14.472537878787877  20.063902243589745 14.802793560606059  20.345552884615387 15.081676136363635  C 20.62720352564103 15.360558712121211  20.960737179487182 15.5  21.346153846153843 15.5  C 21.731570512820515 15.5  22.065104166666668 15.360558712121211  22.346754807692307 15.081676136363635  C 22.62840544871795 14.802793560606059  22.76923076923077 14.472537878787877  22.76923076923077 14.090909090909092  L 22.76923076923077 11.272727272727273  L 25.615384615384613 11.272727272727273  C 26.000801282051285 11.272727272727273  26.33433493589744 11.133285984848488  26.615985576923077 10.854403409090908  Z M 13.396935096153847 26.18927556818182  C 13.952824519230768 26.739701704545453  14.230769230769232 27.403882575757578  14.230769230769232 28.18181818181818  C 14.230769230769232 28.959753787878785  13.952824519230768 29.623934659090907  13.396935096153847 30.174360795454547  C 12.841045673076922 30.72478693181818  12.170272435897436 31  11.384615384615385 31  C 10.598958333333334 31  9.928185096153848 30.72478693181818  9.372295673076922 30.174360795454547  C 8.81640625 29.623934659090907  8.538461538461538 28.959753787878785  8.538461538461538 28.18181818181818  C 8.538461538461538 27.403882575757578  8.81640625 26.739701704545453  9.372295673076922 26.18927556818182  C 9.928185096153848 25.63884943181818  10.598958333333334 25.363636363636363  11.384615384615385 25.363636363636363  C 12.170272435897436 25.363636363636363  12.841045673076922 25.63884943181818  13.396935096153847 26.18927556818182  Z M 33.320012019230774 26.18927556818182  C 33.87590144230769 26.739701704545453  34.15384615384615 27.403882575757578  34.15384615384615 28.18181818181818  C 34.15384615384615 28.959753787878785  33.87590144230769 29.623934659090907  33.320012019230774 30.174360795454547  C 32.76412259615385 30.72478693181818  32.093349358974365 31  31.307692307692307 31  C 30.522035256410255 31  29.85126201923077 30.72478693181818  29.295372596153843 30.174360795454547  C 28.739483173076923 29.623934659090907  28.461538461538463 28.959753787878785  28.461538461538463 28.18181818181818  C 28.461538461538463 27.403882575757578  28.739483173076923 26.739701704545453  29.295372596153843 26.18927556818182  C 29.85126201923077 25.63884943181818  30.522035256410255 25.363636363636363  31.307692307692307 25.363636363636363  C 32.093349358974365 25.363636363636363  32.76412259615385 25.63884943181818  33.320012019230774 26.18927556818182  Z M 36.57752403846154 3.2365056818181808  C 36.85917467948718 3.5153882575757542  37 3.845643939393935  37 4.227272727272727  L 37 15.5  C 37 15.852272727272727  36.881410256410255 16.164180871212125  36.644230769230774 16.435724431818183  C 36.407051282051285 16.70726799242424  36.10316506410257 16.865056818181817  35.73257211538461 16.909090909090907  L 12.518629807692307 19.595170454545453  C 12.533453525641027 19.69791666666666  12.566806891025642 19.85570549242424  12.618689903846153 20.068536931818183  C 12.670572916666668 20.281368371212118  12.715044070512821 20.475852272727273  12.752103365384615 20.651988636363637  C 12.789162660256412 20.828125  12.807692307692307 20.989583333333332  12.807692307692307 21.136363636363637  C 12.807692307692307 21.371212121212118  12.629807692307693 21.840909090909093  12.274038461538462 22  L 32.730769230769226 22  C 33.1161858974359 22.545454545454547  33.44971955128206 22.684895833333332  33.73137019230769 22.963778409090907  C 34.01302083333333 23.242660984848484  34.15384615384615 23.572916666666668  34.15384615384615 23.954545454545453  C 34.15384615384615 24.33617424242424  34.01302083333333 24.666429924242422  33.73137019230769 24.9453125  C 33.44971955128206 25.224195075757578  33.1161858974359 25.363636363636363  32.730769230769226 25  L 9.961538461538462 25  C 9.576121794871796 25.363636363636363  9.24258814102564 25.224195075757578  8.9609375 24.9453125  C 8.67928685897436 24.666429924242422  8.538461538461538 24.33617424242424  8.538461538461538 23.954545454545453  C 8.538461538461538 23.74905303030303  8.619991987179485 23.45916193181818  8.783052884615385 23.084872159090907  C 8.946113782051283 22.710582386363637  9.164763621794872 22.27391098484848  9.439002403846153 21.774857954545453  C 9.713241185897436 21.275804924242422  9.865184294871796 20.996922348484848  9.894831730769232 20.938210227272727  L 5.959134615384616 2.8181818181818192  L 1.4230769230769231 2.8181818181818192  C 1.0376602564102566 2.8181818181818192  0.7041266025641026 2.678740530303027  0.4224759615384615 2.399857954545454  C 0.1408253205128205 2.120975378787877  0 1.7907196969696964  0 1.4090909090909078  C 0 1.0274621212121193  0.1408253205128205 0.6972064393939351  0.4224759615384615 0.4183238636363652  C 0.7041266025641026 0.13944128787878496  1.0376602564102566 0  1.4230769230769231 0  L 7.115384615384616 0  C 7.352564102564103 0  7.563802083333334 0.0477035984848464  7.7490985576923075 0.14311079545454608  C 7.934395032051283 0.23851799242424232  8.082632211538462 0.35227272727272696  8.193810096153847 0.484375  C 8.30498798076923 0.616477272727273  8.401342147435898 0.796283143939389  8.482872596153847 1.023792613636365  C 8.564403044871797 1.251302083333331  8.619991987179489 1.4457859848484813  8.649639423076923 1.6072443181818192  C 8.67928685897436 1.76870265151515  8.720052083333334 1.9852035984848464  8.771935096153847 2.256747159090908  C 8.82381810897436 2.5282907196969693  8.857171474358974 2.715435606060604  8.871995192307693 3  L 35.57692307692308 3  C 35.962339743589745 2.8181818181818192  36.2958733974359 2.957623106060604  36.57752403846154 3.2365056818181808  Z " fill-rule="nonzero" fill="rgba(255, 255, 255, 1)" stroke="none" transform="matrix(1 0 0 1 114 863 )" class="fill" />
    <path d="M 26.615985576923077 10.854403409090908  C 26.89763621794872 10.57552083333333  27.038461538461537 10.24526515151515  27.038461538461537 9.863636363636365  C 27.038461538461537 9.482007575757573  26.89763621794872 9.15175189393939  26.615985576923077 8.872869318181818  C 26.33433493589744 8.593986742424242  26.000801282051285 8.454545454545453  25.615384615384613 8.454545454545453  L 22.76923076923077 8.454545454545453  L 22.76923076923077 5.636363636363635  C 22.76923076923077 5.254734848484846  22.62840544871795 4.9244791666666625  22.346754807692307 4.645596590909092  C 22.065104166666668 4.366714015151512  21.731570512820515 4.227272727272727  21.346153846153843 4.227272727272727  C 20.960737179487182 4.227272727272727  20.62720352564103 4.366714015151512  20.345552884615387 4.645596590909092  C 20.063902243589745 4.9244791666666625  19.923076923076923 5.254734848484846  19.923076923076923 5.636363636363635  L 19.923076923076923 8.454545454545453  L 17.076923076923077 8.454545454545453  C 16.691506410256412 8.454545454545453  16.35797275641026 8.593986742424242  16.076322115384613 8.872869318181818  C 15.794671474358974 9.15175189393939  15.653846153846153 9.482007575757573  15.653846153846153 9.863636363636365  C 15.653846153846153 10.24526515151515  15.794671474358974 10.57552083333333  16.076322115384613 10.854403409090908  C 16.35797275641026 11.133285984848488  16.691506410256412 11.272727272727273  17.076923076923077 11.272727272727273  L 19.923076923076923 11.272727272727273  L 19.923076923076923 14.090909090909092  C 19.923076923076923 14.472537878787877  20.063902243589745 14.802793560606059  20.345552884615387 15.081676136363635  C 20.62720352564103 15.360558712121211  20.960737179487182 15.5  21.346153846153843 15.5  C 21.731570512820515 15.5  22.065104166666668 15.360558712121211  22.346754807692307 15.081676136363635  C 22.62840544871795 14.802793560606059  22.76923076923077 14.472537878787877  22.76923076923077 14.090909090909092  L 22.76923076923077 11.272727272727273  L 25.615384615384613 11.272727272727273  C 26.000801282051285 11.272727272727273  26.33433493589744 11.133285984848488  26.615985576923077 10.854403409090908  Z " stroke-width="0" stroke-dasharray="0" stroke="rgba(255, 255, 255, 0)" fill="none" transform="matrix(1 0 0 1 114 863 )" class="stroke" mask="url(#Clip238)" />
    <path d="M 13.396935096153847 26.18927556818182  C 13.952824519230768 26.739701704545453  14.230769230769232 27.403882575757578  14.230769230769232 28.18181818181818  C 14.230769230769232 28.959753787878785  13.952824519230768 29.623934659090907  13.396935096153847 30.174360795454547  C 12.841045673076922 30.72478693181818  12.170272435897436 31  11.384615384615385 31  C 10.598958333333334 31  9.928185096153848 30.72478693181818  9.372295673076922 30.174360795454547  C 8.81640625 29.623934659090907  8.538461538461538 28.959753787878785  8.538461538461538 28.18181818181818  C 8.538461538461538 27.403882575757578  8.81640625 26.739701704545453  9.372295673076922 26.18927556818182  C 9.928185096153848 25.63884943181818  10.598958333333334 25.363636363636363  11.384615384615385 25.363636363636363  C 12.170272435897436 25.363636363636363  12.841045673076922 25.63884943181818  13.396935096153847 26.18927556818182  Z " stroke-width="0" stroke-dasharray="0" stroke="rgba(255, 255, 255, 0)" fill="none" transform="matrix(1 0 0 1 114 863 )" class="stroke" mask="url(#Clip238)" />
    <path d="M 33.320012019230774 26.18927556818182  C 33.87590144230769 26.739701704545453  34.15384615384615 27.403882575757578  34.15384615384615 28.18181818181818  C 34.15384615384615 28.959753787878785  33.87590144230769 29.623934659090907  33.320012019230774 30.174360795454547  C 32.76412259615385 30.72478693181818  32.093349358974365 31  31.307692307692307 31  C 30.522035256410255 31  29.85126201923077 30.72478693181818  29.295372596153843 30.174360795454547  C 28.739483173076923 29.623934659090907  28.461538461538463 28.959753787878785  28.461538461538463 28.18181818181818  C 28.461538461538463 27.403882575757578  28.739483173076923 26.739701704545453  29.295372596153843 26.18927556818182  C 29.85126201923077 25.63884943181818  30.522035256410255 25.363636363636363  31.307692307692307 25.363636363636363  C 32.093349358974365 25.363636363636363  32.76412259615385 25.63884943181818  33.320012019230774 26.18927556818182  Z " stroke-width="0" stroke-dasharray="0" stroke="rgba(255, 255, 255, 0)" fill="none" transform="matrix(1 0 0 1 114 863 )" class="stroke" mask="url(#Clip238)" />
    <path d="M 36.57752403846154 3.2365056818181808  C 36.85917467948718 3.5153882575757542  37 3.845643939393935  37 4.227272727272727  L 37 15.5  C 37 15.852272727272727  36.881410256410255 16.164180871212125  36.644230769230774 16.435724431818183  C 36.407051282051285 16.70726799242424  36.10316506410257 16.865056818181817  35.73257211538461 16.909090909090907  L 12.518629807692307 19.595170454545453  C 12.533453525641027 19.69791666666666  12.566806891025642 19.85570549242424  12.618689903846153 20.068536931818183  C 12.670572916666668 20.281368371212118  12.715044070512821 20.475852272727273  12.752103365384615 20.651988636363637  C 12.789162660256412 20.828125  12.807692307692307 20.989583333333332  12.807692307692307 21.136363636363637  C 12.807692307692307 21.371212121212118  12.629807692307693 21.840909090909093  12.274038461538462 22  L 32.730769230769226 22  C 33.1161858974359 22.545454545454547  33.44971955128206 22.684895833333332  33.73137019230769 22.963778409090907  C 34.01302083333333 23.242660984848484  34.15384615384615 23.572916666666668  34.15384615384615 23.954545454545453  C 34.15384615384615 24.33617424242424  34.01302083333333 24.666429924242422  33.73137019230769 24.9453125  C 33.44971955128206 25.224195075757578  33.1161858974359 25.363636363636363  32.730769230769226 25  L 9.961538461538462 25  C 9.576121794871796 25.363636363636363  9.24258814102564 25.224195075757578  8.9609375 24.9453125  C 8.67928685897436 24.666429924242422  8.538461538461538 24.33617424242424  8.538461538461538 23.954545454545453  C 8.538461538461538 23.74905303030303  8.619991987179485 23.45916193181818  8.783052884615385 23.084872159090907  C 8.946113782051283 22.710582386363637  9.164763621794872 22.27391098484848  9.439002403846153 21.774857954545453  C 9.713241185897436 21.275804924242422  9.865184294871796 20.996922348484848  9.894831730769232 20.938210227272727  L 5.959134615384616 2.8181818181818192  L 1.4230769230769231 2.8181818181818192  C 1.0376602564102566 2.8181818181818192  0.7041266025641026 2.678740530303027  0.4224759615384615 2.399857954545454  C 0.1408253205128205 2.120975378787877  0 1.7907196969696964  0 1.4090909090909078  C 0 1.0274621212121193  0.1408253205128205 0.6972064393939351  0.4224759615384615 0.4183238636363652  C 0.7041266025641026 0.13944128787878496  1.0376602564102566 0  1.4230769230769231 0  L 7.115384615384616 0  C 7.352564102564103 0  7.563802083333334 0.0477035984848464  7.7490985576923075 0.14311079545454608  C 7.934395032051283 0.23851799242424232  8.082632211538462 0.35227272727272696  8.193810096153847 0.484375  C 8.30498798076923 0.616477272727273  8.401342147435898 0.796283143939389  8.482872596153847 1.023792613636365  C 8.564403044871797 1.251302083333331  8.619991987179489 1.4457859848484813  8.649639423076923 1.6072443181818192  C 8.67928685897436 1.76870265151515  8.720052083333334 1.9852035984848464  8.771935096153847 2.256747159090908  C 8.82381810897436 2.5282907196969693  8.857171474358974 2.715435606060604  8.871995192307693 3  L 35.57692307692308 3  C 35.962339743589745 2.8181818181818192  36.2958733974359 2.957623106060604  36.57752403846154 3.2365056818181808  Z " stroke-width="0" stroke-dasharray="0" stroke="rgba(255, 255, 255, 0)" fill="none" transform="matrix(1 0 0 1 114 863 )" class="stroke" mask="url(#Clip238)" />
  </g>
</svg>