<?xml version="1.0" encoding="utf-8"?>
<svg version="1.1" xmlns:xlink="http://www.w3.org/1999/xlink" width="249px" height="162px" xmlns="http://www.w3.org/2000/svg">
  <g transform="matrix(1 0 0 1 -82 -1888 )">
    <path d="M 82 1888  L 331 1888  L 331 2050  L 82 2050  L 82 1888  " fill-rule="nonzero" fill="rgba(204, 204, 204, 1)" stroke="none" class="fill" />
    <path d="M 93 1899  L 320 1899  L 320 2039  L 93 2039  L 93 1899  " fill-rule="nonzero" fill="rgba(255, 255, 255, 1)" stroke="none" class="fill" />
    <path d="M 223.63000000000002 1936.6  C 216.82600000000002 1936.6  211.48000000000002 1931.254  211.48000000000002 1924.4499999999998  C 211.48000000000002 1917.646  216.82600000000002 1912.3  223.63000000000002 1912.3  C 230.43400000000003 1912.3  235.78000000000003 1917.646  235.78000000000003 1924.4499999999998  C 235.78000000000003 1931.254  230.43400000000003 1936.6  223.63000000000002 1936.6  " fill-rule="nonzero" fill="rgba(204, 204, 204, 1)" stroke="none" class="fill" />
    <path d="M 97 2035  L 97 1962.4  L 151.75 1929.4  L 228.4 1983.4722891566264  L 272.20000000000005 1949.2  L 316 1983.4722891566264  L 316 2035  L 97 2035  " fill-rule="nonzero" fill="rgba(22, 155, 213, 1)" stroke="none" class="fill" />
  </g>
</svg>